<svg id="Ebene_1" data-name="Ebene 1" xmlns="http://www.w3.org/2000/svg" viewBox="0 0 232.4138 50.0175"><title>highlight-divider-bef</title><path d="M210.4251,32.38a.6958.6958,0,0,0-1.0193,0,17.0781,17.0781,0,0,0-2.0461,2.8792,14.4317,14.4317,0,0,0-2.0451,6.991,14.43,14.43,0,0,0,2.0451,6.9906,17.0626,17.0626,0,0,0,2.0461,2.8792.6956.6956,0,0,0,1.0193,0,17.0688,17.0688,0,0,0,2.0459-2.8792,14.4325,14.4325,0,0,0,2.0453-6.9906,14.4338,14.4338,0,0,0-2.0453-6.991A17.0842,17.0842,0,0,0,210.4251,32.38Z" transform="translate(-2.5105 -2.3246)" fill="#1d1d1b" opacity="0.3"/><path d="M209.4056,22.287a.6956.6956,0,0,0,1.0195,0,17.0945,17.0945,0,0,0,2.0459-2.8792,14.4348,14.4348,0,0,0,2.0453-6.991,14.4329,14.4329,0,0,0-2.0453-6.9907,17.0652,17.0652,0,0,0-2.0459-2.8791.6954.6954,0,0,0-1.0195,0A17.0836,17.0836,0,0,0,207.36,5.4261a14.4321,14.4321,0,0,0-2.0451,6.9907,14.4327,14.4327,0,0,0,2.0451,6.991A17.1078,17.1078,0,0,0,209.4056,22.287Z" transform="translate(-2.5105 -2.3246)" fill="#1d1d1b" opacity="0.3"/><path d="M231.8228,24.7779a12.9713,12.9713,0,0,0-13.9818,0,17.0643,17.0643,0,0,0-2.8791,2.046.6955.6955,0,0,0,0,1.0192,17.0648,17.0648,0,0,0,2.8791,2.0462,12.9718,12.9718,0,0,0,13.9818,0,17.0853,17.0853,0,0,0,2.8791-2.0462.695.695,0,0,0,0-1.0192A17.0849,17.0849,0,0,0,231.8228,24.7779Z" transform="translate(-2.5105 -2.3246)" fill="#1d1d1b" opacity="0.3"/><path d="M188.0081,29.8891a12.97,12.97,0,0,0,13.9815,0,17.0642,17.0642,0,0,0,2.8792-2.046.6955.6955,0,0,0,0-1.0194,17.0841,17.0841,0,0,0-2.8792-2.046,12.9713,12.9713,0,0,0-13.9815,0,17.0438,17.0438,0,0,0-2.8791,2.046.6955.6955,0,0,0,0,1.0192A17.0577,17.0577,0,0,0,188.0081,29.8891Z" transform="translate(-2.5105 -2.3246)" fill="#1d1d1b" opacity="0.3"/><path d="M211.3817,27.3334A1.4663,1.4663,0,1,0,209.9153,28.8,1.4666,1.4666,0,0,0,211.3817,27.3334Z" transform="translate(-2.5105 -2.3246)" fill="#1d1d1b" opacity="0.3"/><path d="M206.125,23.5433a.3472.3472,0,0,0,.0368-.4486c-.5508-.7672-5.3977-7.5126-5.9831-8.0979a1.8385,1.8385,0,0,0-2.6,2.6c.5853.5852,7.3308,5.4323,8.0978,5.983A.3472.3472,0,0,0,206.125,23.5433Z" transform="translate(-2.5105 -2.3246)" fill="#1d1d1b" opacity="0.3"/><path d="M214.1542,23.58c.7674-.5507,7.5123-5.3978,8.0976-5.983a1.8384,1.8384,0,0,0-2.6-2.6c-.5853.5853-5.4322,7.3307-5.9829,8.0979a.3477.3477,0,0,0,.4851.4852Z" transform="translate(-2.5105 -2.3246)" fill="#1d1d1b" opacity="0.3"/><path d="M197.5788,39.67a1.8383,1.8383,0,0,0,2.6,0c.5856-.5853,5.4325-7.3309,5.9833-8.0981a.3477.3477,0,0,0-.4852-.4852c-.767.5508-7.5125,5.3981-8.0978,5.9833A1.8405,1.8405,0,0,0,197.5788,39.67Z" transform="translate(-2.5105 -2.3246)" fill="#1d1d1b" opacity="0.3"/><path d="M213.6878,31.5985c.6339.8827,5.3852,7.4924,5.9642,8.0717a1.8384,1.8384,0,1,0,2.6-2.6c-.5853-.5852-7.3306-5.4323-8.0977-5.983a.3462.3462,0,0,0-.2026-.0653h-.0021a.3476.3476,0,0,0-.2616.5766Z" transform="translate(-2.5105 -2.3246)" fill="#1d1d1b" opacity="0.3"/><path d="M4.4143,30.1371a5.203,5.203,0,0,0,4.4411.853,8.3646,8.3646,0,0,0,1.1785-.42,5.1642,5.1642,0,0,0,.3175,4.0378,4.2945,4.2945,0,0,0,3.928,2.2183,3.5178,3.5178,0,0,0,3.334-3.1617,3.0726,3.0726,0,0,0-3.1114-3.0933c-.0434-.0039-.0807-.0246-.1251-.0246a1.4243,1.4243,0,0,0-.2318.0452c-.0116.002-.0233,0-.035.0022l.0008.0044a1.3831,1.3831,0,0,0-1.1691,1.3358,1.4117,1.4117,0,0,0,1.4351,1.387,1.4448,1.4448,0,0,0,1.0394-.4417,1.1058,1.1058,0,0,1,.2893.7078,1.6664,1.6664,0,0,1-1.5465,1.3975,2.3785,2.3785,0,0,1-2.1267-1.2511,3.4579,3.4579,0,0,1-.1445-2.7589,4.8066,4.8066,0,0,1,2.2587-2.6125,5.1349,5.1349,0,0,1,1.4863-.5064,4.0146,4.0146,0,0,0,3.8855,2.8781l4.308-2.1775H175.9349c2.0194,0,2.2382-3.4683-.0539-3.4683H23.8269l-4.3085-2.1775a4.0146,4.0146,0,0,0-3.8855,2.8782,5.137,5.137,0,0,1-1.4869-.507,4.8054,4.8054,0,0,1-2.2576-2.6109,3.4576,3.4576,0,0,1,.1445-2.76,2.4059,2.4059,0,0,1,2.1262-1.25,1.6647,1.6647,0,0,1,1.5465,1.3958,1.1,1.1,0,0,1-.2785.6946,1.4393,1.4393,0,0,0-1.05-.4574,1.4117,1.4117,0,0,0-1.4351,1.387,1.3824,1.3824,0,0,0,1.1737,1.3363l-.0063.0333c.0818.0141.1648.0072.2469.0135.0073,0,.0136.0042.0208.0042l.0113-.0022a3.0659,3.0659,0,0,0,3.2252-3.0867,3.5168,3.5168,0,0,0-3.334-3.16c-.0767-.0052-.1531-.0074-.2292-.0074a4.3311,4.3311,0,0,0-3.6988,2.2257,5.14,5.14,0,0,0-.3454,3.92,7.0556,7.0556,0,0,0-1.2122-.367A6.172,6.172,0,0,0,7.6,22.4733,5.4546,5.4546,0,0,0,4.2063,23.614a4.1849,4.1849,0,0,0-1.6958,3.1837A4.3712,4.3712,0,0,0,4.4143,30.1371Zm.9984-5.0934A3.5874,3.5874,0,0,1,8.41,24.3992a8.9387,8.9387,0,0,1,4,2.3762,10.8908,10.8908,0,0,1-4.0608,2.4351,3.2163,3.2163,0,0,1-2.7777-.5414A2.61,2.61,0,0,1,4.42,26.7977,2.3964,2.3964,0,0,1,5.4127,25.0437Z" transform="translate(-2.5105 -2.3246)" fill="#1d1d1b" opacity="0.3"/></svg>