<svg id="Ebene_1" data-name="Ebene 1" xmlns="http://www.w3.org/2000/svg" viewBox="0 0 416.5152 50.0175"><title>highlight-divider-mob</title><g opacity="0.3"><path d="M209.843,20.4534a.6959.6959,0,0,0,1.0194,0,17.0724,17.0724,0,0,0,2.046-2.8791,14.4317,14.4317,0,0,0,2.0451-6.991,14.43,14.43,0,0,0-2.0451-6.9906,17.0657,17.0657,0,0,0-2.046-2.8792.6957.6957,0,0,0-1.0194,0,17.0723,17.0723,0,0,0-2.046,2.8792,14.4332,14.4332,0,0,0-2.0452,6.9906,14.4349,14.4349,0,0,0,2.0452,6.991A17.079,17.079,0,0,0,209.843,20.4534Z" transform="translate(-1.2424 -0.4913)"/><path d="M210.8625,30.5464a.6956.6956,0,0,0-1.02,0,17.0945,17.0945,0,0,0-2.046,2.8791,14.4363,14.4363,0,0,0-2.0452,6.991,14.4344,14.4344,0,0,0,2.0452,6.9908,17.0687,17.0687,0,0,0,2.046,2.8791.6956.6956,0,0,0,1.02,0,17.0769,17.0769,0,0,0,2.0459-2.8791,14.4322,14.4322,0,0,0,2.0451-6.9908,14.4331,14.4331,0,0,0-2.0451-6.991A17.0975,17.0975,0,0,0,210.8625,30.5464Z" transform="translate(-1.2424 -0.4913)"/><path d="M188.4453,28.0555a12.9713,12.9713,0,0,0,13.9818,0,17.0709,17.0709,0,0,0,2.8791-2.046.6955.6955,0,0,0,0-1.0192,17.0648,17.0648,0,0,0-2.8791-2.0462,12.9713,12.9713,0,0,0-13.9818,0,17.0853,17.0853,0,0,0-2.8791,2.0462.695.695,0,0,0,0,1.0192A17.0915,17.0915,0,0,0,188.4453,28.0555Z" transform="translate(-1.2424 -0.4913)"/><path d="M232.26,22.9443a12.97,12.97,0,0,0-13.9815,0,17.0642,17.0642,0,0,0-2.8792,2.046.6954.6954,0,0,0,0,1.0193,17.081,17.081,0,0,0,2.8792,2.0461,12.9713,12.9713,0,0,0,13.9815,0,17.0555,17.0555,0,0,0,2.8791-2.046.6955.6955,0,0,0,0-1.0192A17.0577,17.0577,0,0,0,232.26,22.9443Z" transform="translate(-1.2424 -0.4913)"/><path d="M208.8864,25.5a1.4663,1.4663,0,1,0,1.4664-1.4663A1.4666,1.4666,0,0,0,208.8864,25.5Z" transform="translate(-1.2424 -0.4913)"/><path d="M214.1431,29.29a.3472.3472,0,0,0-.0368.4486c.5508.7672,5.3977,7.5126,5.9831,8.0978a1.8384,1.8384,0,0,0,2.6-2.6c-.5852-.5852-7.3308-5.4324-8.0978-5.983A.3472.3472,0,0,0,214.1431,29.29Z" transform="translate(-1.2424 -0.4913)"/><path d="M206.1139,29.2535c-.7674.5506-7.5123,5.3978-8.0976,5.983a1.8384,1.8384,0,0,0,2.6,2.6c.5853-.5852,5.4322-7.3306,5.9829-8.0978a.3477.3477,0,0,0-.4851-.4852Z" transform="translate(-1.2424 -0.4913)"/><path d="M222.6893,13.1634a1.8383,1.8383,0,0,0-2.6,0c-.5856.5853-5.4325,7.3309-5.9833,8.0981a.3477.3477,0,0,0,.4852.4852c.767-.5508,7.5126-5.3981,8.0978-5.9833A1.8405,1.8405,0,0,0,222.6893,13.1634Z" transform="translate(-1.2424 -0.4913)"/><path d="M206.58,21.2349c-.6339-.8827-5.3852-7.4924-5.9642-8.0717a1.8384,1.8384,0,1,0-2.6,2.6c.5853.5852,7.3306,5.4323,8.0977,5.9829a.3456.3456,0,0,0,.2026.0654h.0021a.3476.3476,0,0,0,.2616-.5766Z" transform="translate(-1.2424 -0.4913)"/><path d="M3.1462,22.6962a5.2033,5.2033,0,0,1,4.4411-.8529,8.3646,8.3646,0,0,1,1.1785.42,5.1642,5.1642,0,0,1,.3175-4.0378,4.2945,4.2945,0,0,1,3.928-2.2183,3.5178,3.5178,0,0,1,3.334,3.1617,3.0726,3.0726,0,0,1-3.1114,3.0933c-.0433.0039-.0807.0246-.1251.0246a1.4243,1.4243,0,0,1-.2318-.0452c-.0116-.002-.0233,0-.035-.0023l.0008-.0043a1.3831,1.3831,0,0,1-1.1691-1.3358,1.4116,1.4116,0,0,1,1.4351-1.387,1.4447,1.4447,0,0,1,1.0394.4416,1.1053,1.1053,0,0,0,.2893-.7077,1.6662,1.6662,0,0,0-1.5465-1.3975,2.3785,2.3785,0,0,0-2.1267,1.2511,3.4579,3.4579,0,0,0-.1445,2.7589,4.8066,4.8066,0,0,0,2.2587,2.6125,5.1349,5.1349,0,0,0,1.4863.5064A4.0146,4.0146,0,0,1,18.25,22.099l4.308,2.1775H174.6668c2.15,0,2.174,3.4683-.0539,3.4683H22.5588L18.25,29.9223a4.0146,4.0146,0,0,1-3.8855-2.8782,5.134,5.134,0,0,0-1.4869.507A4.8054,4.8054,0,0,0,10.62,30.162a3.4576,3.4576,0,0,0,.1445,2.7605,2.4059,2.4059,0,0,0,2.1262,1.25,1.6647,1.6647,0,0,0,1.5465-1.3958,1.1008,1.1008,0,0,0-.2785-.6947,1.439,1.439,0,0,1-1.05.4575,1.4116,1.4116,0,0,1-1.4351-1.387,1.3824,1.3824,0,0,1,1.1737-1.3363l-.0063-.0333c.0818-.0141.1648-.0072.2469-.0135.0073,0,.0136-.0042.0208-.0042l.0113.0022a3.0659,3.0659,0,0,1,3.2252,3.0866,3.5168,3.5168,0,0,1-3.334,3.16c-.0767.0052-.1531.0074-.2292.0074a4.3313,4.3313,0,0,1-3.6988-2.2257,5.14,5.14,0,0,1-.3455-3.92,7.0607,7.0607,0,0,1-1.2121.367,6.172,6.172,0,0,1-1.1939.1177,5.4552,5.4552,0,0,1-3.3936-1.1407,4.1849,4.1849,0,0,1-1.6958-3.1837A4.3715,4.3715,0,0,1,3.1462,22.6962ZM4.1446,27.79a3.5874,3.5874,0,0,0,2.9975.6445,8.9387,8.9387,0,0,0,4-2.3762,10.8908,10.8908,0,0,0-4.0608-2.4351,3.2163,3.2163,0,0,0-2.7777.5414,2.61,2.61,0,0,0-1.1514,1.8714A2.3964,2.3964,0,0,0,4.1446,27.79Z" transform="translate(-1.2424 -0.4913)"/><path d="M415.8538,22.6962a5.2033,5.2033,0,0,0-4.4411-.8529,8.3646,8.3646,0,0,0-1.1785.42,5.1642,5.1642,0,0,0-.3175-4.0378,4.2945,4.2945,0,0,0-3.928-2.2183,3.5178,3.5178,0,0,0-3.334,3.1617,3.0726,3.0726,0,0,0,3.1114,3.0933c.0433.0039.0807.0246.1251.0246a1.4243,1.4243,0,0,0,.2318-.0452c.0116-.002.0233,0,.035-.0023l-.0008-.0043a1.3831,1.3831,0,0,0,1.1691-1.3358,1.4116,1.4116,0,0,0-1.4351-1.387,1.4447,1.4447,0,0,0-1.0394.4416,1.1053,1.1053,0,0,1-.2893-.7077,1.6662,1.6662,0,0,1,1.5465-1.3975,2.3785,2.3785,0,0,1,2.1267,1.2511,3.4579,3.4579,0,0,1,.1445,2.7589,4.8066,4.8066,0,0,1-2.2587,2.6125,5.1349,5.1349,0,0,1-1.4863.5064A4.0146,4.0146,0,0,0,400.75,22.099l-4.308,2.1775H244.3332c-2.0194,0-2.2382,3.4683.0539,3.4683H396.4412l4.3085,2.1775a4.0146,4.0146,0,0,0,3.8855-2.8782,5.134,5.134,0,0,1,1.4869.507A4.8054,4.8054,0,0,1,408.38,30.162a3.4576,3.4576,0,0,1-.1445,2.7605,2.4059,2.4059,0,0,1-2.1262,1.25,1.6647,1.6647,0,0,1-1.5465-1.3958,1.1008,1.1008,0,0,1,.2785-.6947,1.439,1.439,0,0,0,1.05.4575,1.4116,1.4116,0,0,0,1.4351-1.387,1.3824,1.3824,0,0,0-1.1737-1.3363l.0063-.0333c-.0818-.0141-.1648-.0072-.2469-.0135-.0073,0-.0136-.0042-.0208-.0042l-.0113.0022a3.0659,3.0659,0,0,0-3.2252,3.0866,3.5168,3.5168,0,0,0,3.334,3.16c.0767.0052.1531.0074.2292.0074a4.3313,4.3313,0,0,0,3.6988-2.2257,5.14,5.14,0,0,0,.3455-3.92,7.0607,7.0607,0,0,0,1.2121.367,6.172,6.172,0,0,0,1.1939.1177,5.4552,5.4552,0,0,0,3.3936-1.1407,4.1849,4.1849,0,0,0,1.6958-3.1837A4.3715,4.3715,0,0,0,415.8538,22.6962Zm-.9984,5.0935a3.5874,3.5874,0,0,1-2.9975.6445,8.9387,8.9387,0,0,1-3.9995-2.3762,10.8908,10.8908,0,0,1,4.0608-2.4351,3.2163,3.2163,0,0,1,2.7777.5414,2.61,2.61,0,0,1,1.1514,1.8714A2.3964,2.3964,0,0,1,414.8554,27.79Z" transform="translate(-1.2424 -0.4913)"/></g></svg>