<svg id="AZULEJO_PORTUGUESE_TILES_DESIGN" data-name="AZULEJO PORTUGUESE TILES DESIGN" xmlns="http://www.w3.org/2000/svg" viewBox="0 0 1133.8589 1133.8589"><title>tiles</title><g id="tiles"><g id="tile"><g id="pattern"><path d="M917.06,673.3111a44.0888,44.0888,0,0,0-25.9687,8.2217v-15.49c0-44.3945-40.6993-75.0136-40.6993-75.0136h0s-40.705,30.6191-40.705,75.0136v15.49a44.0606,44.0606,0,0,0-25.961-8.2217c-22.4824,0-40.7051,16.0078-40.7051,35.749,95.0293.0039,106.9532,79.4063,107.3711,84.3936v.0039h0c.4141-4.9737,12.334-84.3936,107.3692-84.3975C957.7613,689.3189,939.5347,673.3111,917.06,673.3111Z" fill="#312782"/><path d="M783.7261,1027.4771a44.0738,44.0738,0,0,0,25.961-8.22v15.4883c0,44.3945,40.705,75.0175,40.705,75.0175v-.0029h0s40.6993-30.62,40.6993-75.0146v-15.4883a44.0749,44.0749,0,0,0,25.9687,8.22c22.4805,0,40.7012-16.0078,40.7012-35.7451-95.0235-.0078-106.9512-79.41-107.3692-84.3994v-.002h0c-.414,4.9746-12.332,84.3936-107.3711,84.4014C743.021,1011.4693,761.2437,1027.4771,783.7261,1027.4771Z" fill="#312782"/><path d="M673.3121,783.7251a44.0626,44.0626,0,0,0,8.2187,25.9659H666.0425c-44.3945,0-75.0136,40.7-75.0136,40.7v.0039h0s30.6191,40.7021,75.0136,40.7021h15.4883a44.058,44.058,0,0,0-8.2187,25.9658c0,22.4776,16,40.7032,35.7441,40.7032.0039-95.0284,79.4043-106.958,84.3984-107.3711h0c-4.9746-.4112-84.3945-12.335-84.3984-107.3711C689.3121,743.024,673.3121,761.2476,673.3121,783.7251Z" fill="#312782"/><path d="M1027.4761,917.063a44.0989,44.0989,0,0,0-8.2187-25.9658h15.4883c44.3925,0,75.0117-40.7021,75.0117-40.7021h0v-.0039s-30.6192-40.7-75.0117-40.7h-15.4883a44.0947,44.0947,0,0,0,8.2187-25.9659c0-22.4775-16.0078-40.7011-35.75-40.7011C991.72,838.05,912.3218,849.98,907.3335,850.3951v-.0039l-.0039.0039c4.9727.4131,84.3907,12.331,84.3965,107.3711C1011.4683,957.7662,1027.4761,939.5445,1027.4761,917.063Z" fill="#312782"/><path d="M698.7378,656.1207c-7.09,7.0888-12.5683,21.5029,1.2207,42.7236a54.9355,54.9355,0,0,0,5.0684,6.1836,54.7128,54.7128,0,0,0-6.1875-5.0664c-21.2129-13.791-35.6328-8.3116-42.7227-1.2266-3.1484,3.1543-8.3066,13.9541,1.02,22.7324,17.4258,17.4258,37.5234-16.8662,71.2734,6.94h0c-23.8086-33.7491,10.4824-53.8428-6.9453-71.2666C712.691,647.815,701.8843,652.97,698.7378,656.1207Z" fill="#312782"/><path d="M1002.0523,1044.6714c7.0879-7.0849,12.5664-21.5029-1.2246-42.7256a54.0554,54.0554,0,0,0-5.0645-6.18,53.4343,53.4343,0,0,0,6.1836,5.06c21.2207,13.7949,35.6367,8.3174,42.7188,1.2285,3.1543-3.15,8.3066-13.9521-1.0157-22.7324-17.4238-17.4219-37.5214,16.87-71.2714-6.9424h0c23.8086,33.751-10.4825,53.8467,6.9433,71.2686C988.0972,1052.9751,998.898,1047.8238,1002.0523,1044.6714Z" fill="#312782"/><path d="M656.1167,1002.0552c7.09,7.0889,21.504,12.5664,42.7227-1.2226a53.9173,53.9173,0,0,0,6.1855-5.07,55.0631,55.0631,0,0,0-5.0664,6.1875c-13.789,21.2158-8.31,35.6367-1.2207,42.7216,3.1465,3.1524,13.9532,8.3037,22.7305-1.0224,17.4238-17.4219-16.8672-37.5176,6.9414-71.2686h0c-33.75,23.8086-53.8476-10.48-71.2734,6.9424C647.81,988.1031,652.9683,998.9048,656.1167,1002.0552Z" fill="#312782"/><path d="M1044.67,698.7349c-7.086-7.0869-21.502-12.5644-42.7227,1.2266a53.3834,53.3834,0,0,0-6.1836,5.0664,54.2537,54.2537,0,0,0,5.0606-6.1836c13.7949-21.22,8.3164-35.6348,1.2285-42.7236-3.15-3.15-13.9551-8.3057-22.73,1.02-17.4258,17.4238,16.8672,37.5214-6.9433,71.2666h0c33.75-23.8028,53.8476,10.4853,71.2714-6.94C1052.9722,712.689,1047.8238,701.8892,1044.67,698.7349Z" fill="#312782"/><g id="flower"><path d="M842.17,824.5328c9.4472,9.4511,8.2871,25.9277,8.2871,25.9277s-16.4766,1.1572-25.9277-8.291c-9.4454-9.4473-8.2852-25.9238-8.2852-25.9238S832.72,815.09,842.17,824.5328Z" fill="#312782"/><path d="M876.2554,858.6246c9.4492,9.4472,8.2871,25.92,8.2871,25.92s-16.4726,1.1592-25.9238-8.2852c-9.4453-9.4492-8.2871-25.9238-8.2871-25.9238S866.8082,849.1783,876.2554,858.6246Z" fill="#312782"/><path d="M824.5289,858.6246c9.4511-9.45,25.9277-8.2891,25.9277-8.2891s1.16,16.4746-8.2871,25.9238c-9.4531,9.4444-25.9258,8.2852-25.9258,8.2852S815.0835,868.0718,824.5289,858.6246Z" fill="#312782"/><path d="M858.6187,824.5328c9.4512-9.4424,25.9238-8.2871,25.9238-8.2871s1.1621,16.4726-8.2871,25.9238c-9.4492,9.4443-25.9238,8.291-25.9238,8.291S849.1734,833.9781,858.6187,824.5328Z" fill="#312782"/></g><g id="dots"><path d="M791.16,764.5777a18.798,18.798,0,1,1-26.5859,0A18.795,18.795,0,0,1,791.16,764.5777Z" fill="#b1b3db"/><path d="M936.2124,909.6314a18.798,18.798,0,1,1-26.5859,0A18.795,18.795,0,0,1,936.2124,909.6314Z" fill="#b1b3db"/><path d="M764.5738,909.6314a18.798,18.798,0,1,1,0,26.583A18.7985,18.7985,0,0,1,764.5738,909.6314Z" fill="#b1b3db"/><path d="M909.6265,764.5777a18.798,18.798,0,1,1,0,26.583A18.7949,18.7949,0,0,1,909.6265,764.5777Z" fill="#b1b3db"/></g></g></g><g id="tile-2" data-name="tile"><g id="pattern-2" data-name="pattern"><g id="pattern-3" data-name="pattern"><g id="shapes"><path d="M283.4483,1095.8169l-7.2651-10.2c-10.4825-14.72-37.78-50.163-64.775-61.3437-10.6142-4.3975-24.9624-6.6279-42.6484-6.6279a290.2322,290.2322,0,0,0-46.3823,4.1748l-12.4614,2.09,2.0883-12.4648c2.98-17.792,8.71-62.08-2.4536-89.0293-11.1616-26.9492-46.53-54.2139-61.2168-64.6866l-10.291-7.3359,10.291-7.3359c14.687-10.4707,50.0552-37.7354,61.2168-64.6865,11.1636-26.9493,5.4336-71.2374,2.4517-89.0293l-2.0864-12.4629,12.4614,2.0879a290.2817,290.2817,0,0,0,46.3843,4.1748c17.684,0,32.0322-2.2305,42.6464-6.626,26.9952-11.1807,54.2925-46.624,64.775-61.3438l7.2651-10.2,7.3623,10.1319c10.8291,14.8994,38.8017,50.708,64.6426,61.4121,10.1264,4.1933,24.2451,6.3213,41.9653,6.3213a313.0112,313.0112,0,0,0,47.3223-4.0616l12.2524-1.9443-1.9443,12.2549c-2.8916,18.2236-8.4595,63.4023,2.26,89.2852,10.7232,25.8828,46.606,53.8906,61.5366,64.7324l10.04,7.29-10.04,7.29c-14.9306,10.8417-50.8154,38.85-61.5366,64.7343-10.7212,25.8828-5.1518,71.0615-2.26,89.2832l1.9443,12.2569-12.2524-1.9444a312.7883,312.7883,0,0,0-47.3223-4.0615c-17.72,0-31.8389,2.126-41.9653,6.3213-25.8369,10.7-53.8135,46.5127-64.6426,61.4141ZM168.76,999.6285c20.0635,0,36.7329,2.69,49.5444,8,25.6534,10.624,49.896,37.6318,65.28,57.6894,15.73-20.2295,40.27-47.46,64.9737-57.6914,12.3232-5.1064,28.7636-7.6933,48.8588-7.6933a311.7991,311.7991,0,0,1,38.1285,2.5732c-3.208-25.4727-5.1465-62.2061,5.1172-86.9844,10.2661-24.7812,37.6074-49.3838,57.8886-65.1289C478.27,834.648,450.9283,810.0455,440.66,785.2642c-10.2617-24.7783-8.3232-61.5117-5.1172-86.9844a311.3089,311.3089,0,0,1-38.1245,2.5752c-20.0972,0-36.5376-2.5869-48.8608-7.6933C323.8516,682.9283,299.314,655.7,283.584,635.47c-15.3818,20.0576-39.6284,47.0654-65.28,57.6914-12.8115,5.3076-29.4794,7.998-49.5424,7.998a290.9669,290.9669,0,0,1-37.1651-2.6006c3.28,25.0157,5.1978,61.1309-5.3974,86.7071S88.711,835.0249,68.7051,850.3931c20.0078,15.37,46.8994,39.5518,57.4942,65.127,10.5952,25.5771,8.6777,61.6933,5.3974,86.707A291.2793,291.2793,0,0,1,168.76,999.6285Z" fill="#312782"/></g><path d="M325.1553,739.6988a27.5471,27.5471,0,0,0-16.2334,5.14v-9.6826c0-27.751-25.4433-46.8935-25.4433-46.8935h0s-25.4424,19.1425-25.4424,46.8935v9.6826a27.5444,27.5444,0,0,0-16.2315-5.14c-14.0517,0-25.4433,10.0039-25.4433,22.3447,59.4009.0039,66.8569,49.6377,67.1172,52.7578v.002h0c.2587-3.11,7.7109-52.7559,67.1171-52.76C350.5957,749.7027,339.2046,739.6988,325.1553,739.6988Z" fill="#312782"/><path d="M241.8047,961.0894a27.55,27.55,0,0,0,16.2315-5.1387v9.6817c0,27.7509,25.4424,46.8935,25.4424,46.8935h0s25.4433-19.1426,25.4433-46.8935v-9.6817a27.5528,27.5528,0,0,0,16.2334,5.1387c14.0493,0,25.44-10.0059,25.44-22.3447-59.4-.0039-66.8544-49.6377-67.1171-52.7578v-.002h0c-.2564,3.11-7.709,52.7559-67.1172,52.76C216.3614,951.0835,227.753,961.0894,241.8047,961.0894Z" fill="#312782"/><path d="M172.7847,808.7193a27.5415,27.5415,0,0,0,5.1387,16.2305h-9.6841c-27.749,0-46.8916,25.4433-46.8916,25.4433h0v.002s19.1426,25.4414,46.8916,25.4414h9.6841a27.5517,27.5517,0,0,0-5.1387,16.2324c0,14.0518,10.0039,25.4434,22.3443,25.4434.0019-59.4024,49.6362-66.8584,52.7578-67.1172h0c-3.11-.2588-52.7559-7.711-52.7578-67.1192C182.7886,783.2759,172.7847,794.6675,172.7847,808.7193Z" fill="#312782"/><path d="M394.1748,892.0689a27.5774,27.5774,0,0,0-5.1367-16.2324H398.72c27.7495,0,46.8916-25.4414,46.8916-25.4414v-.002h0S426.4693,824.95,398.72,824.95h-9.6817a27.5672,27.5672,0,0,0,5.1367-16.2305c0-14.0518-10.0058-25.4434-22.3447-25.4434-.0058,59.4-49.6377,66.8594-52.7573,67.1172h-.002c3.108.2588,52.7535,7.7109,52.7593,67.1192C384.169,917.5123,394.1748,906.1207,394.1748,892.0689Z" fill="#312782"/><path d="M188.6778,728.9507c-4.4326,4.4307-7.8565,13.4414.7651,26.708a33.7848,33.7848,0,0,0,3.1655,3.8643,33.96,33.96,0,0,0-3.8657-3.165c-13.2632-8.6221-22.2754-5.1963-26.706-.7657-1.9693,1.9688-5.1924,8.7207.6372,14.208,10.8916,10.8916,23.4541-10.5429,44.5508,4.3389h0c-14.8819-21.0967,6.5532-33.6572-4.3389-44.5488C197.399,723.76,190.647,726.982,188.6778,728.9507Z" fill="#312782"/><path d="M378.2818,971.8374c4.4287-4.4306,7.8545-13.4414-.7671-26.708a33.5192,33.5192,0,0,0-3.166-3.8642,34.142,34.142,0,0,0,3.8662,3.166c13.2651,8.6221,22.2773,5.1953,26.706.7666,1.9693-1.9707,5.1924-8.7227-.6372-14.21-10.8921-10.8916-23.4546,10.544-44.5507-4.3388h0c14.8818,21.0967-6.5513,33.6572,4.3383,44.5488C369.5586,977.0279,376.3106,973.8072,378.2818,971.8374Z" fill="#312782"/><path d="M162.0367,945.1958c4.4306,4.4307,13.4409,7.8575,26.706-.7646a33.4092,33.4092,0,0,0,3.8638-3.168,33.91,33.91,0,0,0-3.1636,3.8682c-8.6216,13.2627-5.1977,22.2754-.7651,26.706,1.9692,1.97,8.7212,5.1905,14.208-.64,10.8921-10.89-10.543-23.4541,4.3389-44.5488h0c-21.0982,14.8828-33.6592-6.5528-44.5508,4.3388C156.8443,936.4751,160.0674,943.2271,162.0367,945.1958Z" fill="#312782"/><path d="M404.9229,755.59c-4.4307-4.4307-13.4429-7.8545-26.708.7676a33.7815,33.7815,0,0,0-3.8662,3.165,33.9007,33.9007,0,0,0,3.166-3.8643c8.6216-13.2646,5.1958-22.2773.7671-26.708-1.9693-1.9687-8.7232-5.19-14.21.64-10.89,10.8916,10.5454,23.4541-4.3383,44.5488h0c21.0961-14.8818,33.6586,6.5527,44.5507-4.3389C410.1133,764.313,406.8941,757.5611,404.9229,755.59Z" fill="#312782"/><g id="flower-2" data-name="flower"><path d="M278.3208,834.229c5.9043,5.9043,5.1792,16.2022,5.1792,16.2022s-10.2988.7256-16.205-5.1807c-5.9043-5.9062-5.1807-16.205-5.1807-16.205S272.4146,828.3228,278.3208,834.229Z" fill="#312782"/><path d="M299.628,855.5357c5.9062,5.9062,5.1806,16.2051,5.1806,16.2051s-10.2983.7246-16.2046-5.1817c-5.9042-5.9062-5.1806-16.2041-5.1806-16.2041S293.7237,849.6314,299.628,855.5357Z" fill="#312782"/><path d="M267.295,855.5357c5.9062-5.9043,16.205-5.1807,16.205-5.1807s.7251,10.2979-5.1792,16.2041c-5.9082,5.9063-16.2065,5.1817-16.2065,5.1817S261.3907,861.4419,267.295,855.5357Z" fill="#312782"/><path d="M288.604,834.2271c5.9063-5.9043,16.2046-5.1816,16.2046-5.1816s.7256,10.2988-5.1806,16.205-16.2046,5.1807-16.2046,5.1807S282.7,840.1333,288.604,834.2271Z" fill="#312782"/></g><g id="dots-2" data-name="dots"><path d="M246.4341,796.7476a11.7515,11.7515,0,1,1-16.6181,0A11.7537,11.7537,0,0,1,246.4341,796.7476Z" fill="#312782"/><path d="M337.1089,887.4224a11.7506,11.7506,0,1,1-16.6176,0A11.7537,11.7537,0,0,1,337.1089,887.4224Z" fill="#312782"/><path d="M229.816,887.4224a11.7508,11.7508,0,1,1,0,16.6182A11.7509,11.7509,0,0,1,229.816,887.4224Z" fill="#312782"/><path d="M320.4913,796.7476a11.7506,11.7506,0,1,1,0,16.6182A11.7487,11.7487,0,0,1,320.4913,796.7476Z" fill="#312782"/></g></g><g id="pattern-4" data-name="pattern"><g id="flowers"><path d="M26.2823,634.9361,19.586,628.479V656.5l.019-.0225c7.5235,9.5312,18.6812,26.9531,18.6792,46.4609.002,19.3828-11.1689,36.8584-18.6982,46.4356V777.397l6.6963-6.46c1.2768-1.2305,31.2959-30.61,31.2959-67.9991C57.58,665.5464,27.5591,636.1685,26.2823,634.9361Z" fill="#312782"/><path d="M68.0049,593.2124l-6.4555-6.6972H89.57l-.0235.0195c9.5293,7.5254,26.9531,18.6817,46.461,18.6817,19.3837,0,36.8593-11.1719,46.4345-18.7012h28.0244l-6.4575,6.6972c-1.2344,1.2784-30.6137,31.2969-68.0014,31.2969C98.6167,624.5093,69.2393,594.4908,68.0049,593.2124Z" fill="#312782"/><path d="M540.6485,634.9361l6.6943-6.4571V656.5l-.0176-.0225c-7.5254,9.5312-18.6806,26.9531-18.6806,46.4609,0,19.3828,11.1709,36.8584,18.6982,46.4356V777.397l-6.6943-6.46c-1.2783-1.2305-31.3-30.61-31.3-67.9991C509.3506,665.5464,539.37,636.1685,540.6485,634.9361Z" fill="#312782"/><path d="M498.9239,593.2124l6.456-6.6953-28.0195-.0019.0215.0195c-9.5293,7.5254-26.9531,18.6817-46.459,18.6817-19.3838,0-36.8594-11.1719-46.4365-18.6993H356.4639l6.4575,6.6953c1.2305,1.2784,30.61,31.2969,68.0015,31.2969C468.3121,624.5093,497.6915,594.4908,498.9239,593.2124Z" fill="#312782"/><path d="M540.6485,1065.8521l6.6943,6.457v-28.02l-.0176.0225c-7.5273-9.53-18.6806-26.9531-18.6806-46.461,0-19.3828,11.1709-36.8584,18.6982-46.4336V923.3931l-6.6943,6.458c-1.2783,1.2305-31.2979,30.61-31.2979,67.999C509.3506,1035.2417,539.37,1064.62,540.6485,1065.8521Z" fill="#312782"/><path d="M498.9239,1107.5757l6.456,6.6973H477.3584a.114.114,0,0,0,.0235-.0195c-9.5293-7.5235-26.9531-18.6807-46.459-18.6787-19.3838-.002-36.8594,11.1689-46.4365,18.6982H356.4639l6.4575-6.6973c1.2305-1.2783,30.61-31.2968,68.0015-31.2968C468.3121,1076.2789,497.6915,1106.2974,498.9239,1107.5757Z" fill="#312782"/><path d="M26.2823,1065.8521l-6.6963,6.457v-28.02l.019.0225c7.5235-9.53,18.6812-26.9531,18.6812-46.461-.002-19.3828-11.1709-36.8584-18.7-46.4336V923.3931l6.6963,6.458c1.2768,1.2324,31.2959,30.61,31.2978,67.999C57.58,1035.2417,27.5591,1064.62,26.2823,1065.8521Z" fill="#312782"/><path d="M68.0049,1107.5757l-6.4555,6.6973H89.57a.2038.2038,0,0,1-.0235-.0195c9.5313-7.5235,26.9531-18.6807,46.461-18.6807,19.3837,0,36.8593,11.1709,46.4345,18.7h28.0244l-6.4575-6.6973c-1.2324-1.2783-30.6137-31.2968-68.0014-31.2968C98.6167,1076.2789,69.2393,1106.2974,68.0049,1107.5757Z" fill="#312782"/></g><g id="flowers-2" data-name="flowers"><path d="M77.8975,650.9781c7.064,0,12.7881,6.5937,12.7881,6.5937s-5.7241,6.5908-12.7881,6.5908c-7.0625,0-12.7886-6.5908-12.7886-6.5908S70.837,650.9781,77.8975,650.9781Z" fill="#b1b3db"/><path d="M103.3824,650.9781c7.062,0,12.7885,6.5937,12.7885,6.5937s-5.7265,6.5908-12.7885,6.5908-12.7886-6.5908-12.7886-6.5908S96.3223,650.9781,103.3824,650.9781Z" fill="#b1b3db"/><path d="M84.0489,670.3121c0-7.0625,6.5908-12.7881,6.5908-12.7881s6.5918,5.7256,6.5918,12.7881S90.64,683.1,90.64,683.1,84.0489,677.3765,84.0489,670.3121Z" fill="#b1b3db"/><path d="M84.0489,644.8267c0-7.0615,6.5908-12.7881,6.5908-12.7881s6.5918,5.7266,6.5918,12.7881S90.64,657.6158,90.64,657.6158,84.0489,651.8892,84.0489,644.8267Z" fill="#b1b3db"/><path d="M463.5464,1036.6255c7.064,0,12.7867,6.5928,12.7867,6.5928s-5.7227,6.5918-12.7867,6.5918c-7.062,0-12.7885-6.5918-12.7885-6.5918S456.4844,1036.6255,463.5464,1036.6255Z" fill="#b1b3db"/><path d="M489.0313,1036.6255c7.0644,0,12.7861,6.5928,12.7861,6.5928s-5.7217,6.5918-12.7861,6.5918c-7.062,0-12.7881-6.5918-12.7881-6.5918S481.9693,1036.6255,489.0313,1036.6255Z" fill="#b1b3db"/><path d="M469.6973,1055.9615c0-7.0645,6.5918-12.7891,6.5918-12.7891s6.5913,5.7246,6.5913,12.7871-6.5913,12.79-6.5913,12.79S469.6973,1063.023,469.6973,1055.9615Z" fill="#b1b3db"/><path d="M469.6973,1030.4742c0-7.0625,6.5918-12.7862,6.5918-12.7862s6.5913,5.7237,6.5913,12.7862c0,7.0644-6.5913,12.7881-6.5913,12.7881S469.6973,1037.5367,469.6973,1030.4742Z" fill="#b1b3db"/><path d="M84.0489,1055.9615c0-7.0645,6.5908-12.7891,6.5908-12.7891s6.5918,5.7246,6.5918,12.7871-6.5918,12.79-6.5918,12.79S84.0489,1063.023,84.0489,1055.9615Z" fill="#b1b3db"/><path d="M84.0489,1030.4761c0-7.0625,6.5908-12.7881,6.5908-12.7881s6.5918,5.7256,6.5918,12.7881-6.5918,12.7881-6.5918,12.7881S84.0489,1037.5386,84.0489,1030.4761Z" fill="#b1b3db"/><path d="M103.3824,1049.81c-7.062,0-12.7886-6.5918-12.7886-6.5918s5.7266-6.5928,12.7886-6.5928c7.062.002,12.7885,6.5928,12.7885,6.5928S110.4444,1049.81,103.3824,1049.81Z" fill="#b1b3db"/><path d="M77.8975,1049.81c-7.0625,0-12.7886-6.5918-12.7886-6.5918s5.7261-6.5928,12.7886-6.5908c7.064-.002,12.7881,6.5908,12.7881,6.5908S84.96,1049.81,77.8975,1049.81Z" fill="#b1b3db"/><path d="M469.6954,670.3121c0-7.0625,6.5918-12.7881,6.5918-12.7881s6.5932,5.7256,6.5932,12.7881-6.5932,12.788-6.5932,12.788S469.6954,677.3746,469.6954,670.3121Z" fill="#b1b3db"/><path d="M469.6954,644.8267c0-7.0615,6.5918-12.7881,6.5918-12.7881s6.5932,5.7266,6.5932,12.7881c0,7.0645-6.5932,12.7891-6.5932,12.7891S469.6954,651.8912,469.6954,644.8267Z" fill="#b1b3db"/><path d="M489.0313,664.1626c-7.062,0-12.7881-6.5908-12.7881-6.5908s5.7261-6.5937,12.7861-6.5937c7.0645,0,12.79,6.5937,12.79,6.5937S496.0938,664.1626,489.0313,664.1626Z" fill="#b1b3db"/><path d="M463.5445,664.1626c-7.06,0-12.7866-6.5908-12.7866-6.5908s5.7246-6.5937,12.7866-6.5937c7.0639,0,12.7886,6.5937,12.7886,6.5937S470.6084,664.1626,463.5445,664.1626Z" fill="#b1b3db"/></g></g></g></g><g id="tile-3" data-name="tile"><g id="pattern-5" data-name="pattern"><g id="pattern-6" data-name="pattern"><g id="shapes-2" data-name="shapes"><path d="M850.3765,528.8877l-7.2637-10.2c-10.4824-14.72-37.7812-50.163-64.7754-61.3437-10.6152-4.3975-24.9628-6.6279-42.6484-6.6279a290.2346,290.2346,0,0,0-46.3828,4.1748l-12.4609,2.09,2.0879-12.4648c2.98-17.792,8.7109-62.08-2.4532-89.0293-11.1621-26.9492-46.5312-54.2139-61.2168-64.6866l-10.291-7.3359,10.291-7.3359c14.6856-10.4707,50.0547-37.7354,61.2168-64.6865,11.1641-26.9493,5.4336-71.2378,2.4512-89.0289l-2.0859-12.4633,12.4609,2.0879a290.29,290.29,0,0,0,46.3848,4.1743c17.6836,0,32.0312-2.23,42.6464-6.6255,26.9942-11.1812,54.293-46.624,64.7754-61.3433l7.2637-10.2012L857.74,48.1739c10.8281,14.8994,38.8008,50.7075,64.6426,61.4121,10.1269,4.1929,24.2441,6.3213,41.9648,6.3213a313.0239,313.0239,0,0,0,47.3223-4.0611l12.2519-1.9448-1.9433,12.2544c-2.8926,18.2241-8.459,63.4028,2.26,89.2857,10.7227,25.8833,46.6075,53.8906,61.5371,64.7324l10.0391,7.29-10.0391,7.29c-14.93,10.8417-50.8164,38.85-61.5371,64.7343-10.7207,25.8828-5.1523,71.0615-2.26,89.2832l1.9433,12.2569L1011.67,455.084a312.7944,312.7944,0,0,0-47.3223-4.0615c-17.7207,0-31.8379,2.126-41.9648,6.3213-25.8379,10.7-53.8145,46.5127-64.6426,61.4141ZM735.689,432.6993c20.0625,0,36.7324,2.69,49.543,8,25.6543,10.624,49.8965,37.6318,65.2812,57.6894,15.7305-20.2295,40.27-47.46,64.9727-57.6914,12.3242-5.1064,28.7637-7.6933,48.8594-7.6933a311.8,311.8,0,0,1,38.1289,2.5732c-3.209-25.4727-5.1465-62.2061,5.1172-86.9844,10.2656-24.7812,37.6074-49.3838,57.8886-65.1289-20.2812-15.7451-47.623-40.3481-57.8906-65.1289-10.2617-24.7783-8.3242-61.5112-5.1172-86.9849a311.1,311.1,0,0,1-38.125,2.5762c-20.0976,0-36.5371-2.5874-48.8613-7.6938-24.7051-10.2334-49.2422-37.4619-64.9727-57.6914-15.3828,20.0571-39.6289,47.0654-65.2812,57.6914-12.8106,5.3071-29.4785,7.998-49.541,7.998a290.8746,290.8746,0,0,1-37.1661-2.6011c3.2813,25.0162,5.1993,61.1309-5.3964,86.7076s-37.4883,49.7587-57.4942,65.1269c20.0078,15.37,46.8985,39.5518,57.4942,65.127,10.5957,25.5771,8.6777,61.6933,5.3964,86.707A291.2824,291.2824,0,0,1,735.689,432.6993Z" fill="#312782"/></g><path d="M892.0835,172.77a27.5457,27.5457,0,0,0-16.2324,5.1386v-9.6821c0-27.751-25.4433-46.8935-25.4433-46.8935h0s-25.4434,19.1425-25.4434,46.8935v9.6821a27.5439,27.5439,0,0,0-16.2305-5.1386c-14.0527,0-25.4433,10.0034-25.4433,22.3442,59.4.0039,66.8574,49.6377,67.1172,52.7578v.0015h0c.2578-3.11,7.7109-52.7554,67.1171-52.7593C917.5249,182.7735,906.1343,172.77,892.0835,172.77Z" fill="#312782"/><path d="M808.7339,394.16a27.5467,27.5467,0,0,0,16.2305-5.1387v9.6817c0,27.7509,25.4434,46.8935,25.4434,46.8935h0s25.4433-19.1426,25.4433-46.8935v-9.6817a27.5485,27.5485,0,0,0,16.2324,5.1387c14.0508,0,25.4414-10.0059,25.4414-22.3447-59.4-.0039-66.8554-49.6377-67.1171-52.7578v-.002h0c-.2559,3.11-7.709,52.7559-67.1172,52.76C783.2906,384.1543,794.6812,394.16,808.7339,394.16Z" fill="#312782"/><path d="M739.7144,241.79a27.5336,27.5336,0,0,0,5.1387,16.2314h-9.6856c-27.748,0-46.8906,25.4429-46.8906,25.4429h0v.002s19.1426,25.4414,46.8906,25.4414h9.6856a27.5413,27.5413,0,0,0-5.1387,16.2324c0,14.0518,10.002,25.4434,22.3438,25.4434.0019-59.4024,49.6367-66.8584,52.7578-67.1172h0c-3.1114-.2588-52.7559-7.711-52.7578-67.1192C749.7164,216.3467,739.7144,227.7378,739.7144,241.79Z" fill="#312782"/><path d="M961.1031,325.14a27.5815,27.5815,0,0,0-5.1367-16.2324h9.6816c27.75,0,46.8926-25.4414,46.8926-25.4414v-.002h0S993.398,258.021,965.648,258.021h-9.6816a27.5739,27.5739,0,0,0,5.1367-16.2314c0-14.0518-10.0059-25.4429-22.3438-25.4429-.0058,59.4-49.6386,66.8584-52.7578,67.1172H886c3.1074.2588,52.7539,7.7109,52.76,67.1192C951.0972,350.5831,961.1031,339.1915,961.1031,325.14Z" fill="#312782"/><path d="M755.607,162.0215c-4.4336,4.4307-7.8574,13.4414.7656,26.708a33.83,33.83,0,0,0,3.1641,3.8643,33.9536,33.9536,0,0,0-3.8653-3.1655c-13.2636-8.6221-22.2754-5.1963-26.707-.7657-1.9687,1.9693-5.1914,8.7217.6387,14.2085,10.8906,10.8916,23.4531-10.5434,44.5508,4.3389h0c-14.8829-21.0967,6.5527-33.6572-4.34-44.5488C764.3277,156.8311,757.5757,160.0523,755.607,162.0215Z" fill="#312782"/><path d="M945.2105,404.9082c4.43-4.4306,7.8555-13.4414-.7676-26.708a33.4122,33.4122,0,0,0-3.166-3.8642,34.18,34.18,0,0,0,3.8672,3.166c13.2637,8.6211,22.2773,5.1953,26.7051.7666,1.9707-1.9707,5.1933-8.7227-.6368-14.21-10.8925-10.8916-23.455,10.543-44.5507-4.3388h0c14.8828,21.0967-6.5508,33.6572,4.3379,44.5488C936.4878,410.0987,943.24,406.877,945.2105,404.9082Z" fill="#312782"/><path d="M728.9644,378.2666c4.4316,4.4307,13.4414,7.8565,26.707-.7646a33.3271,33.3271,0,0,0,3.8633-3.168,33.92,33.92,0,0,0-3.1621,3.8682c-8.623,13.2627-5.1992,22.2754-.7656,26.706,1.9687,1.9688,8.7207,5.19,14.207-.64,10.8926-10.89-10.543-23.4541,4.34-44.5488h0c-21.1,14.8818-33.66-6.5528-44.5508,4.3388C723.773,369.5459,726.9957,376.2979,728.9644,378.2666Z" fill="#312782"/><path d="M971.8511,188.6607c-4.43-4.4307-13.4433-7.8545-26.707.7676a33.9431,33.9431,0,0,0-3.8672,3.1655,33.8241,33.8241,0,0,0,3.166-3.8643c8.6231-13.2646,5.1973-22.2773.7676-26.708-1.9688-1.9692-8.7227-5.19-14.2109.64-10.8887,10.8916,10.5468,23.4541-4.3379,44.5488h0c21.0957-14.8823,33.6582,6.5527,44.5507-4.3389C977.0425,197.3843,973.8238,190.6319,971.8511,188.6607Z" fill="#312782"/><g id="flower-3" data-name="flower"><path d="M845.25,267.2994c5.9043,5.9043,5.18,16.2026,5.18,16.2026s-10.2988.7256-16.205-5.1807c-5.9043-5.9062-5.1817-16.2046-5.1817-16.2046S839.3433,261.3931,845.25,267.2994Z" fill="#312782"/><path d="M866.5562,288.6065c5.9062,5.9062,5.1816,16.2051,5.1816,16.2051s-10.2988.7246-16.205-5.1817c-5.9043-5.9062-5.1817-16.2041-5.1817-16.2041S860.6519,282.7022,866.5562,288.6065Z" fill="#312782"/><path d="M834.2242,288.6065c5.9062-5.9043,16.205-5.1807,16.205-5.1807s.7247,10.2979-5.18,16.2041c-5.9082,5.9063-16.2071,5.1817-16.2071,5.1817S828.32,294.5127,834.2242,288.6065Z" fill="#312782"/><path d="M855.5328,267.2974c5.9062-5.9043,16.205-5.1807,16.205-5.1807s.7246,10.2984-5.1816,16.2046-16.2051,5.1807-16.2051,5.1807S849.6285,273.2037,855.5328,267.2974Z" fill="#312782"/></g><g id="dots-3" data-name="dots"><path d="M813.3628,229.8184a11.7512,11.7512,0,1,1-16.6171,0A11.7528,11.7528,0,0,1,813.3628,229.8184Z" fill="#312782"/><path d="M904.0386,320.4932a11.7512,11.7512,0,1,1-16.6191,0A11.7563,11.7563,0,0,1,904.0386,320.4932Z" fill="#312782"/><path d="M796.7457,320.4932a11.75,11.75,0,1,1,0,16.6182A11.75,11.75,0,0,1,796.7457,320.4932Z" fill="#312782"/><path d="M887.42,229.8184a11.7512,11.7512,0,1,1,0,16.6182A11.7512,11.7512,0,0,1,887.42,229.8184Z" fill="#312782"/></g></g><g id="pattern-7" data-name="pattern"><g id="flowers-3" data-name="flowers"><path d="M593.2105,68.0069,586.5152,61.55V89.57l.0195-.023c7.5235,9.5313,18.68,26.9531,18.6777,46.4609.002,19.3838-11.1679,36.8594-18.6972,46.4361v28.0229l6.6953-6.4594c1.2773-1.2305,31.2969-30.61,31.2969-68C624.5093,98.6172,594.4878,69.24,593.2105,68.0069Z" fill="#312782"/><path d="M634.9332,26.2828l-6.4551-6.6963H656.5l-.0235.019c9.5293,7.5254,26.9531,18.6812,46.461,18.6812,19.3828,0,36.8593-11.1714,46.4336-18.7H777.396l-6.457,6.6963C769.7046,27.5616,740.3238,57.58,702.9371,57.58,665.5464,57.58,636.1675,27.5616,634.9332,26.2828Z" fill="#312782"/><path d="M1107.5777,68.0069l6.6933-6.4571V89.57a.1436.1436,0,0,1-.0156-.023c-7.5254,9.5313-18.6816,26.9531-18.6816,46.4609,0,19.3838,11.17,36.8594,18.6972,46.4361v28.0229l-6.6933-6.4594c-1.2793-1.2305-31.3008-30.61-31.3008-68C1076.2789,98.6172,1106.2984,69.24,1107.5777,68.0069Z" fill="#312782"/><path d="M1065.8531,26.2828l6.4551-6.6944-28.02-.0019.0215.019c-9.5293,7.5254-26.9531,18.6812-46.459,18.6812-19.3828,0-36.8594-11.1714-46.4355-18.6983H923.3921l6.4571,6.6944c1.2324,1.2788,30.6113,31.2973,68.0019,31.2973C1035.24,57.58,1064.6207,27.5616,1065.8531,26.2828Z" fill="#312782"/><path d="M1107.5777,498.9229l6.6933,6.457V477.3594a.16.16,0,0,0-.0156.0225c-7.5273-9.53-18.6816-26.9522-18.6816-46.461,0-19.3828,11.17-36.8584,18.6972-46.4336V356.4639l-6.6933,6.458c-1.2793,1.2305-31.2988,30.61-31.2988,67.999C1076.2789,468.3125,1106.2984,497.6905,1107.5777,498.9229Z" fill="#312782"/><path d="M1065.8531,540.6465l6.4551,6.6973h-28.0215a.1161.1161,0,0,0,.0234-.0195c-9.5293-7.5235-26.9531-18.6807-46.459-18.68-19.3828-.001-36.8594,11.17-46.4355,18.6992H923.3921l6.4571-6.6973c1.2324-1.2783,30.6113-31.2968,68.0019-31.2968C1035.24,509.35,1064.6207,539.3682,1065.8531,540.6465Z" fill="#312782"/><path d="M593.2105,498.9229l-6.6953,6.457V477.3594c.0058.0078.0137.0147.0195.0225,7.5235-9.53,18.68-26.9522,18.68-46.461-.002-19.3828-11.17-36.8584-18.6992-46.4336V356.4639l6.6953,6.458c1.2773,1.2324,31.2969,30.61,31.2988,67.999C624.5093,468.3125,594.4878,497.6905,593.2105,498.9229Z" fill="#312782"/><path d="M634.9332,540.6465l-6.4551,6.6973H656.5a.2038.2038,0,0,1-.0235-.0195c9.5313-7.5235,26.9531-18.6807,46.461-18.6807,19.3828,0,36.8593,11.1709,46.4336,18.7H777.396l-6.457-6.6973c-1.2324-1.2783-30.6152-31.2968-68.0019-31.2968C665.5464,509.35,636.1675,539.3682,634.9332,540.6465Z" fill="#312782"/></g><g id="flowers-4" data-name="flowers"><path d="M644.8257,84.0489c7.0645,0,12.7891,6.5932,12.7891,6.5932s-5.7246,6.5913-12.7891,6.5913c-7.0625,0-12.7871-6.5913-12.7871-6.5913S637.7652,84.0489,644.8257,84.0489Z" fill="#b1b3db"/><path d="M670.3121,84.0489c7.0605,0,12.7871,6.5932,12.7871,6.5932s-5.7266,6.5913-12.7871,6.5913c-7.0625,0-12.7891-6.5913-12.7891-6.5913S663.2515,84.0489,670.3121,84.0489Z" fill="#b1b3db"/><path d="M650.9781,103.3829c0-7.0621,6.59-12.7886,6.59-12.7886s6.5918,5.7265,6.5918,12.7886-6.5918,12.7885-6.5918,12.7885S650.9781,110.4468,650.9781,103.3829Z" fill="#b1b3db"/><path d="M650.9781,77.898c0-7.062,6.59-12.7886,6.59-12.7886S664.16,70.836,664.16,77.898s-6.5918,12.7886-6.5918,12.7886S650.9781,84.96,650.9781,77.898Z" fill="#b1b3db"/><path d="M1030.4761,469.6963c7.0625,0,12.7852,6.5928,12.7852,6.5928s-5.7227,6.5918-12.7852,6.5918-12.789-6.5918-12.789-6.5918S1023.4136,469.6963,1030.4761,469.6963Z" fill="#b1b3db"/><path d="M1055.9605,469.6963c7.0644,0,12.7871,6.5928,12.7871,6.5928s-5.7227,6.5918-12.7871,6.5918c-7.0625,0-12.7891-6.5918-12.7891-6.5918S1048.898,469.6963,1055.9605,469.6963Z" fill="#b1b3db"/><path d="M1036.6265,489.0323c0-7.0645,6.5918-12.7891,6.5918-12.7891s6.59,5.7246,6.59,12.7871-6.59,12.79-6.59,12.79S1036.6265,496.0938,1036.6265,489.0323Z" fill="#b1b3db"/><path d="M1036.6265,463.545c0-7.0625,6.5918-12.7862,6.5918-12.7862s6.59,5.7237,6.59,12.7862c0,7.0644-6.59,12.7881-6.59,12.7881S1036.6265,470.6075,1036.6265,463.545Z" fill="#b1b3db"/><path d="M650.9781,489.0323c0-7.0645,6.59-12.7891,6.59-12.7891s6.5918,5.7246,6.5918,12.7871-6.5918,12.79-6.5918,12.79S650.9781,496.0938,650.9781,489.0323Z" fill="#b1b3db"/><path d="M650.9781,463.5469c0-7.0625,6.59-12.7881,6.59-12.7881s6.5918,5.7256,6.5918,12.7881-6.5918,12.7881-6.5918,12.7881S650.9781,470.6094,650.9781,463.5469Z" fill="#b1b3db"/><path d="M670.3121,482.8809c-7.0625,0-12.7891-6.5918-12.7891-6.5918s5.7266-6.5928,12.7891-6.5928c7.0605.002,12.7871,6.5928,12.7871,6.5928S677.3726,482.8809,670.3121,482.8809Z" fill="#b1b3db"/><path d="M644.8257,482.8809c-7.0625,0-12.7871-6.5918-12.7871-6.5918s5.7246-6.5928,12.7871-6.5908c7.0645-.002,12.7891,6.5908,12.7891,6.5908S651.8882,482.8809,644.8257,482.8809Z" fill="#b1b3db"/><path d="M1036.6246,103.3829c0-7.0621,6.5918-12.7886,6.5918-12.7886s6.5918,5.7265,6.5918,12.7886-6.5918,12.7885-6.5918,12.7885S1036.6246,110.4449,1036.6246,103.3829Z" fill="#b1b3db"/><path d="M1036.6246,77.898c0-7.062,6.5918-12.7886,6.5918-12.7886s6.5918,5.7266,6.5918,12.7886c0,7.064-6.5918,12.7886-6.5918,12.7886S1036.6246,84.962,1036.6246,77.898Z" fill="#b1b3db"/><path d="M1055.9605,97.2334c-7.0625,0-12.7891-6.5913-12.7891-6.5913s5.7266-6.5932,12.7871-6.5932c7.0645,0,12.7911,6.5932,12.7911,6.5932S1063.023,97.2334,1055.9605,97.2334Z" fill="#b1b3db"/><path d="M1030.4742,97.2334c-7.0606,0-12.7871-6.5913-12.7871-6.5913s5.7246-6.5932,12.7871-6.5932,12.7871,6.5932,12.7871,6.5932S1037.5367,97.2334,1030.4742,97.2334Z" fill="#b1b3db"/></g></g></g></g><g id="tile-4" data-name="tile"><g id="pattern-8" data-name="pattern"><path d="M350.1314,106.3819a44.0868,44.0868,0,0,0-25.9688,8.2221V99.1133c0-44.394-40.7-75.0141-40.7-75.0141h0s-40.7041,30.62-40.7041,75.0141V114.604a44.0568,44.0568,0,0,0-25.9614-8.2221c-22.4819,0-40.7041,16.0078-40.7041,35.749,95.0293.0039,106.9527,79.4063,107.37,84.3936v.0039h0c.4156-4.9742,12.335-84.3936,107.37-84.3975C390.8326,122.39,372.606,106.3819,350.1314,106.3819Z" fill="#312782"/><path d="M216.7969,460.5479a44.0725,44.0725,0,0,0,25.9614-8.22v15.4883c0,44.3945,40.7041,75.0175,40.7041,75.0175V542.83h0s40.7-30.6191,40.7-75.0136V452.3282a44.0755,44.0755,0,0,0,25.9688,8.22c22.4805,0,40.7012-16.0078,40.7012-35.7451-95.024-.0078-106.9507-79.41-107.37-84.3994v-.002h0c-.4135,4.9736-12.331,84.3936-107.37,84.4014C176.0928,444.54,194.315,460.5479,216.7969,460.5479Z" fill="#312782"/><path d="M106.3824,216.7964a44.0632,44.0632,0,0,0,8.22,25.9654H99.1133c-44.3935,0-75.0136,40.7-75.0136,40.7v.0039h0S54.72,324.168,99.1133,324.168h15.4893a44.059,44.059,0,0,0-8.22,25.9658c0,22.4776,16.0019,40.7032,35.7451,40.7032.0039-95.0284,79.4043-106.958,84.3979-107.3711h0c-4.9746-.4112-84.394-12.335-84.3979-107.3716C122.3843,176.0943,106.3824,194.3184,106.3824,216.7964Z" fill="#312782"/><path d="M460.5464,350.1338a44.0982,44.0982,0,0,0-8.2177-25.9658h15.4882c44.3926,0,75.0118-40.7021,75.0118-40.7021h0v-.0039s-30.6192-40.7-75.0118-40.7H452.3287a44.0936,44.0936,0,0,0,8.2177-25.9654c0-22.478-16.0068-40.7021-35.749-40.7021-.0059,95.0273-79.4043,106.9565-84.3935,107.3716v-.0039l-.004.0039c4.9737.4131,84.3916,12.331,84.3975,107.3711C444.54,390.837,460.5464,372.6153,460.5464,350.1338Z" fill="#312782"/><path d="M131.8082,89.1915c-7.0889,7.0888-12.5684,21.5024,1.2211,42.7231a54.8615,54.8615,0,0,0,5.0694,6.1841,54.8024,54.8024,0,0,0-6.1875-5.0664c-21.2129-13.791-35.6338-8.3116-42.7227-1.2266-3.1484,3.1538-8.3066,13.9541,1.02,22.7329,17.4253,17.4258,37.523-16.8667,71.272,6.94h0c-23.8086-33.7491,10.4824-53.8428-6.9453-71.2661C145.7618,80.8853,134.9561,86.0415,131.8082,89.1915Z" fill="#312782"/><path d="M435.1226,477.7422c7.0889-7.0849,12.5664-21.5029-1.2236-42.7256a54.0554,54.0554,0,0,0-5.0645-6.18,53.4343,53.4343,0,0,0,6.1836,5.06c21.2207,13.7949,35.6367,8.3174,42.7188,1.2285,3.1543-3.15,8.3066-13.9521-1.0157-22.7324-17.4238-17.4219-37.5214,16.87-71.2714-6.9424h0c23.8085,33.751-10.4825,53.8467,6.9433,71.2686C421.1685,486.0459,431.9693,480.8946,435.1226,477.7422Z" fill="#312782"/><path d="M89.1885,435.126c7.0889,7.0889,21.5039,12.5664,42.7227-1.2226a54.0445,54.0445,0,0,0,6.186-5.07,54.9964,54.9964,0,0,0-5.0679,6.1875c-13.79,21.2158-8.31,35.6367-1.2211,42.7216,3.1479,3.1524,13.9536,8.3037,22.7309-1.0224,17.4238-17.4219-16.8672-37.5176,6.9414-71.2686h0c-33.749,23.8086-53.8467-10.4795-71.272,6.9424C80.8819,421.1739,86.04,431.9756,89.1885,435.126Z" fill="#312782"/><path d="M477.7408,131.8057c-7.086-7.0869-21.502-12.5644-42.7227,1.2266a53.4366,53.4366,0,0,0-6.1836,5.0664,54.0669,54.0669,0,0,0,5.06-6.1841c13.7949-21.2188,8.3174-35.6343,1.2285-42.7231-3.1494-3.15-13.9541-8.3062-22.7295,1.02-17.4258,17.4233,16.8672,37.521-6.9433,71.2661h0c33.75-23.8028,53.8476,10.4863,71.2714-6.94C486.0435,145.76,480.8951,134.96,477.7408,131.8057Z" fill="#312782"/><g id="flower-4" data-name="flower"><path d="M275.2408,257.604c9.4467,9.4507,8.2866,25.9273,8.2866,25.9273s-16.4761,1.1572-25.9268-8.291c-9.4453-9.4473-8.2851-25.9234-8.2851-25.9234S265.792,248.1607,275.2408,257.604Z" fill="#312782"/><path d="M309.3262,291.6954c9.45,9.4472,8.2876,25.92,8.2876,25.92s-16.4731,1.1592-25.9233-8.2852c-9.4453-9.4492-8.2871-25.9238-8.2871-25.9238S299.88,282.2491,309.3262,291.6954Z" fill="#312782"/><path d="M257.6006,291.6954c9.4507-9.45,25.9268-8.2891,25.9268-8.2891s1.16,16.4746-8.2866,25.9238c-9.4527,9.4444-25.9253,8.2852-25.9253,8.2852S248.1553,301.1426,257.6006,291.6954Z" fill="#312782"/><path d="M291.6905,257.604c9.45-9.4433,25.9233-8.2871,25.9233-8.2871s1.1621,16.4727-8.2876,25.9234c-9.4482,9.4443-25.9228,8.291-25.9228,8.291S282.2452,267.0489,291.6905,257.604Z" fill="#312782"/></g><g id="dots-4" data-name="dots"><path d="M224.2305,197.6485a18.798,18.798,0,1,1-26.5854,0A18.7965,18.7965,0,0,1,224.2305,197.6485Z" fill="#b1b3db"/><path d="M369.2837,342.7022a18.798,18.798,0,1,1-26.5859,0A18.795,18.795,0,0,1,369.2837,342.7022Z" fill="#b1b3db"/><path d="M197.6451,342.7022a18.7979,18.7979,0,1,1,0,26.583A18.7979,18.7979,0,0,1,197.6451,342.7022Z" fill="#b1b3db"/><path d="M342.6978,197.6485a18.7982,18.7982,0,1,1,0,26.5835A18.7949,18.7949,0,0,1,342.6978,197.6485Z" fill="#b1b3db"/></g></g></g></g><g id="tiles-2" data-name="tiles"><g id="tile-5" data-name="tile"><g id="pattern-9" data-name="pattern"><path d="M917.06,673.3111a44.0888,44.0888,0,0,0-25.9687,8.2217v-15.49c0-44.3945-40.6993-75.0136-40.6993-75.0136h0s-40.705,30.6191-40.705,75.0136v15.49a44.0606,44.0606,0,0,0-25.961-8.2217c-22.4824,0-40.7051,16.0078-40.7051,35.749,95.0293.0039,106.9532,79.4063,107.3711,84.3936v.0039h0c.4141-4.9737,12.334-84.3936,107.3692-84.3975C957.7613,689.3189,939.5347,673.3111,917.06,673.3111Z" fill="#312782"/><path d="M783.7261,1027.4771a44.0738,44.0738,0,0,0,25.961-8.22v15.4883c0,44.3945,40.705,75.0175,40.705,75.0175v-.0029h0s40.6993-30.62,40.6993-75.0146v-15.4883a44.0749,44.0749,0,0,0,25.9687,8.22c22.4805,0,40.7012-16.0078,40.7012-35.7451-95.0235-.0078-106.9512-79.41-107.3692-84.3994v-.002h0c-.414,4.9746-12.332,84.3936-107.3711,84.4014C743.021,1011.4693,761.2437,1027.4771,783.7261,1027.4771Z" fill="#312782"/><path d="M673.3121,783.7251a44.0626,44.0626,0,0,0,8.2187,25.9659H666.0425c-44.3945,0-75.0136,40.7-75.0136,40.7v.0039h0s30.6191,40.7021,75.0136,40.7021h15.4883a44.058,44.058,0,0,0-8.2187,25.9658c0,22.4776,16,40.7032,35.7441,40.7032.0039-95.0284,79.4043-106.958,84.3984-107.3711h0c-4.9746-.4112-84.3945-12.335-84.3984-107.3711C689.3121,743.024,673.3121,761.2476,673.3121,783.7251Z" fill="#312782"/><path d="M1027.4761,917.063a44.0989,44.0989,0,0,0-8.2187-25.9658h15.4883c44.3925,0,75.0117-40.7021,75.0117-40.7021h0v-.0039s-30.6192-40.7-75.0117-40.7h-15.4883a44.0947,44.0947,0,0,0,8.2187-25.9659c0-22.4775-16.0078-40.7011-35.75-40.7011C991.72,838.05,912.3218,849.98,907.3335,850.3951v-.0039l-.0039.0039c4.9727.4131,84.3907,12.331,84.3965,107.3711C1011.4683,957.7662,1027.4761,939.5445,1027.4761,917.063Z" fill="#312782"/><path d="M698.7378,656.1207c-7.09,7.0888-12.5683,21.5029,1.2207,42.7236a54.9355,54.9355,0,0,0,5.0684,6.1836,54.7128,54.7128,0,0,0-6.1875-5.0664c-21.2129-13.791-35.6328-8.3116-42.7227-1.2266-3.1484,3.1543-8.3066,13.9541,1.02,22.7324,17.4258,17.4258,37.5234-16.8662,71.2734,6.94h0c-23.8086-33.7491,10.4824-53.8428-6.9453-71.2666C712.691,647.815,701.8843,652.97,698.7378,656.1207Z" fill="#312782"/><path d="M1002.0523,1044.6714c7.0879-7.0849,12.5664-21.5029-1.2246-42.7256a54.0554,54.0554,0,0,0-5.0645-6.18,53.4343,53.4343,0,0,0,6.1836,5.06c21.2207,13.7949,35.6367,8.3174,42.7188,1.2285,3.1543-3.15,8.3066-13.9521-1.0157-22.7324-17.4238-17.4219-37.5214,16.87-71.2714-6.9424h0c23.8086,33.751-10.4825,53.8467,6.9433,71.2686C988.0972,1052.9751,998.898,1047.8238,1002.0523,1044.6714Z" fill="#312782"/><path d="M656.1167,1002.0552c7.09,7.0889,21.504,12.5664,42.7227-1.2226a53.9173,53.9173,0,0,0,6.1855-5.07,55.0631,55.0631,0,0,0-5.0664,6.1875c-13.789,21.2158-8.31,35.6367-1.2207,42.7216,3.1465,3.1524,13.9532,8.3037,22.7305-1.0224,17.4238-17.4219-16.8672-37.5176,6.9414-71.2686h0c-33.75,23.8086-53.8476-10.48-71.2734,6.9424C647.81,988.1031,652.9683,998.9048,656.1167,1002.0552Z" fill="#312782"/><path d="M1044.67,698.7349c-7.086-7.0869-21.502-12.5644-42.7227,1.2266a53.3834,53.3834,0,0,0-6.1836,5.0664,54.2537,54.2537,0,0,0,5.0606-6.1836c13.7949-21.22,8.3164-35.6348,1.2285-42.7236-3.15-3.15-13.9551-8.3057-22.73,1.02-17.4258,17.4238,16.8672,37.5214-6.9433,71.2666h0c33.75-23.8028,53.8476,10.4853,71.2714-6.94C1052.9722,712.689,1047.8238,701.8892,1044.67,698.7349Z" fill="#312782"/><g id="flower-5" data-name="flower"><path d="M842.17,824.5328c9.4472,9.4511,8.2871,25.9277,8.2871,25.9277s-16.4766,1.1572-25.9277-8.291c-9.4454-9.4473-8.2852-25.9238-8.2852-25.9238S832.72,815.09,842.17,824.5328Z" fill="#312782"/><path d="M876.2554,858.6246c9.4492,9.4472,8.2871,25.92,8.2871,25.92s-16.4726,1.1592-25.9238-8.2852c-9.4453-9.4492-8.2871-25.9238-8.2871-25.9238S866.8082,849.1783,876.2554,858.6246Z" fill="#312782"/><path d="M824.5289,858.6246c9.4511-9.45,25.9277-8.2891,25.9277-8.2891s1.16,16.4746-8.2871,25.9238c-9.4531,9.4444-25.9258,8.2852-25.9258,8.2852S815.0835,868.0718,824.5289,858.6246Z" fill="#312782"/><path d="M858.6187,824.5328c9.4512-9.4424,25.9238-8.2871,25.9238-8.2871s1.1621,16.4726-8.2871,25.9238c-9.4492,9.4443-25.9238,8.291-25.9238,8.291S849.1734,833.9781,858.6187,824.5328Z" fill="#312782"/></g><g id="dots-5" data-name="dots"><path d="M791.16,764.5777a18.798,18.798,0,1,1-26.5859,0A18.795,18.795,0,0,1,791.16,764.5777Z" fill="#b1b3db"/><path d="M936.2124,909.6314a18.798,18.798,0,1,1-26.5859,0A18.795,18.795,0,0,1,936.2124,909.6314Z" fill="#b1b3db"/><path d="M764.5738,909.6314a18.798,18.798,0,1,1,0,26.583A18.7985,18.7985,0,0,1,764.5738,909.6314Z" fill="#b1b3db"/><path d="M909.6265,764.5777a18.798,18.798,0,1,1,0,26.583A18.7949,18.7949,0,0,1,909.6265,764.5777Z" fill="#b1b3db"/></g></g></g><g id="tile-6" data-name="tile"><g id="pattern-10" data-name="pattern"><g id="pattern-11" data-name="pattern"><g id="shapes-3" data-name="shapes"><path d="M283.4483,1095.8169l-7.2651-10.2c-10.4825-14.72-37.78-50.163-64.775-61.3437-10.6142-4.3975-24.9624-6.6279-42.6484-6.6279a290.2322,290.2322,0,0,0-46.3823,4.1748l-12.4614,2.09,2.0883-12.4648c2.98-17.792,8.71-62.08-2.4536-89.0293-11.1616-26.9492-46.53-54.2139-61.2168-64.6866l-10.291-7.3359,10.291-7.3359c14.687-10.4707,50.0552-37.7354,61.2168-64.6865,11.1636-26.9493,5.4336-71.2374,2.4517-89.0293l-2.0864-12.4629,12.4614,2.0879a290.2817,290.2817,0,0,0,46.3843,4.1748c17.684,0,32.0322-2.2305,42.6464-6.626,26.9952-11.1807,54.2925-46.624,64.775-61.3438l7.2651-10.2,7.3623,10.1319c10.8291,14.8994,38.8017,50.708,64.6426,61.4121,10.1264,4.1933,24.2451,6.3213,41.9653,6.3213a313.0112,313.0112,0,0,0,47.3223-4.0616l12.2524-1.9443-1.9443,12.2549c-2.8916,18.2236-8.4595,63.4023,2.26,89.2852,10.7232,25.8828,46.606,53.8906,61.5366,64.7324l10.04,7.29-10.04,7.29c-14.9306,10.8417-50.8154,38.85-61.5366,64.7343-10.7212,25.8828-5.1518,71.0615-2.26,89.2832l1.9443,12.2569-12.2524-1.9444a312.7883,312.7883,0,0,0-47.3223-4.0615c-17.72,0-31.8389,2.126-41.9653,6.3213-25.8369,10.7-53.8135,46.5127-64.6426,61.4141ZM168.76,999.6285c20.0635,0,36.7329,2.69,49.5444,8,25.6534,10.624,49.896,37.6318,65.28,57.6894,15.73-20.2295,40.27-47.46,64.9737-57.6914,12.3232-5.1064,28.7636-7.6933,48.8588-7.6933a311.7991,311.7991,0,0,1,38.1285,2.5732c-3.208-25.4727-5.1465-62.2061,5.1172-86.9844,10.2661-24.7812,37.6074-49.3838,57.8886-65.1289C478.27,834.648,450.9283,810.0455,440.66,785.2642c-10.2617-24.7783-8.3232-61.5117-5.1172-86.9844a311.3089,311.3089,0,0,1-38.1245,2.5752c-20.0972,0-36.5376-2.5869-48.8608-7.6933C323.8516,682.9283,299.314,655.7,283.584,635.47c-15.3818,20.0576-39.6284,47.0654-65.28,57.6914-12.8115,5.3076-29.4794,7.998-49.5424,7.998a290.9669,290.9669,0,0,1-37.1651-2.6006c3.28,25.0157,5.1978,61.1309-5.3974,86.7071S88.711,835.0249,68.7051,850.3931c20.0078,15.37,46.8994,39.5518,57.4942,65.127,10.5952,25.5771,8.6777,61.6933,5.3974,86.707A291.2793,291.2793,0,0,1,168.76,999.6285Z" fill="#312782"/></g><path d="M325.1553,739.6988a27.5471,27.5471,0,0,0-16.2334,5.14v-9.6826c0-27.751-25.4433-46.8935-25.4433-46.8935h0s-25.4424,19.1425-25.4424,46.8935v9.6826a27.5444,27.5444,0,0,0-16.2315-5.14c-14.0517,0-25.4433,10.0039-25.4433,22.3447,59.4009.0039,66.8569,49.6377,67.1172,52.7578v.002h0c.2587-3.11,7.7109-52.7559,67.1171-52.76C350.5957,749.7027,339.2046,739.6988,325.1553,739.6988Z" fill="#312782"/><path d="M241.8047,961.0894a27.55,27.55,0,0,0,16.2315-5.1387v9.6817c0,27.7509,25.4424,46.8935,25.4424,46.8935h0s25.4433-19.1426,25.4433-46.8935v-9.6817a27.5528,27.5528,0,0,0,16.2334,5.1387c14.0493,0,25.44-10.0059,25.44-22.3447-59.4-.0039-66.8544-49.6377-67.1171-52.7578v-.002h0c-.2564,3.11-7.709,52.7559-67.1172,52.76C216.3614,951.0835,227.753,961.0894,241.8047,961.0894Z" fill="#312782"/><path d="M172.7847,808.7193a27.5415,27.5415,0,0,0,5.1387,16.2305h-9.6841c-27.749,0-46.8916,25.4433-46.8916,25.4433h0v.002s19.1426,25.4414,46.8916,25.4414h9.6841a27.5517,27.5517,0,0,0-5.1387,16.2324c0,14.0518,10.0039,25.4434,22.3443,25.4434.0019-59.4024,49.6362-66.8584,52.7578-67.1172h0c-3.11-.2588-52.7559-7.711-52.7578-67.1192C182.7886,783.2759,172.7847,794.6675,172.7847,808.7193Z" fill="#312782"/><path d="M394.1748,892.0689a27.5774,27.5774,0,0,0-5.1367-16.2324H398.72c27.7495,0,46.8916-25.4414,46.8916-25.4414v-.002h0S426.4693,824.95,398.72,824.95h-9.6817a27.5672,27.5672,0,0,0,5.1367-16.2305c0-14.0518-10.0058-25.4434-22.3447-25.4434-.0058,59.4-49.6377,66.8594-52.7573,67.1172h-.002c3.108.2588,52.7535,7.7109,52.7593,67.1192C384.169,917.5123,394.1748,906.1207,394.1748,892.0689Z" fill="#312782"/><path d="M188.6778,728.9507c-4.4326,4.4307-7.8565,13.4414.7651,26.708a33.7848,33.7848,0,0,0,3.1655,3.8643,33.96,33.96,0,0,0-3.8657-3.165c-13.2632-8.6221-22.2754-5.1963-26.706-.7657-1.9693,1.9688-5.1924,8.7207.6372,14.208,10.8916,10.8916,23.4541-10.5429,44.5508,4.3389h0c-14.8819-21.0967,6.5532-33.6572-4.3389-44.5488C197.399,723.76,190.647,726.982,188.6778,728.9507Z" fill="#312782"/><path d="M378.2818,971.8374c4.4287-4.4306,7.8545-13.4414-.7671-26.708a33.5192,33.5192,0,0,0-3.166-3.8642,34.142,34.142,0,0,0,3.8662,3.166c13.2651,8.6221,22.2773,5.1953,26.706.7666,1.9693-1.9707,5.1924-8.7227-.6372-14.21-10.8921-10.8916-23.4546,10.544-44.5507-4.3388h0c14.8818,21.0967-6.5513,33.6572,4.3383,44.5488C369.5586,977.0279,376.3106,973.8072,378.2818,971.8374Z" fill="#312782"/><path d="M162.0367,945.1958c4.4306,4.4307,13.4409,7.8575,26.706-.7646a33.4092,33.4092,0,0,0,3.8638-3.168,33.91,33.91,0,0,0-3.1636,3.8682c-8.6216,13.2627-5.1977,22.2754-.7651,26.706,1.9692,1.97,8.7212,5.1905,14.208-.64,10.8921-10.89-10.543-23.4541,4.3389-44.5488h0c-21.0982,14.8828-33.6592-6.5528-44.5508,4.3388C156.8443,936.4751,160.0674,943.2271,162.0367,945.1958Z" fill="#312782"/><path d="M404.9229,755.59c-4.4307-4.4307-13.4429-7.8545-26.708.7676a33.7815,33.7815,0,0,0-3.8662,3.165,33.9007,33.9007,0,0,0,3.166-3.8643c8.6216-13.2646,5.1958-22.2773.7671-26.708-1.9693-1.9687-8.7232-5.19-14.21.64-10.89,10.8916,10.5454,23.4541-4.3383,44.5488h0c21.0961-14.8818,33.6586,6.5527,44.5507-4.3389C410.1133,764.313,406.8941,757.5611,404.9229,755.59Z" fill="#312782"/><g id="flower-6" data-name="flower"><path d="M278.3208,834.229c5.9043,5.9043,5.1792,16.2022,5.1792,16.2022s-10.2988.7256-16.205-5.1807c-5.9043-5.9062-5.1807-16.205-5.1807-16.205S272.4146,828.3228,278.3208,834.229Z" fill="#312782"/><path d="M299.628,855.5357c5.9062,5.9062,5.1806,16.2051,5.1806,16.2051s-10.2983.7246-16.2046-5.1817c-5.9042-5.9062-5.1806-16.2041-5.1806-16.2041S293.7237,849.6314,299.628,855.5357Z" fill="#312782"/><path d="M267.295,855.5357c5.9062-5.9043,16.205-5.1807,16.205-5.1807s.7251,10.2979-5.1792,16.2041c-5.9082,5.9063-16.2065,5.1817-16.2065,5.1817S261.3907,861.4419,267.295,855.5357Z" fill="#312782"/><path d="M288.604,834.2271c5.9063-5.9043,16.2046-5.1816,16.2046-5.1816s.7256,10.2988-5.1806,16.205-16.2046,5.1807-16.2046,5.1807S282.7,840.1333,288.604,834.2271Z" fill="#312782"/></g><g id="dots-6" data-name="dots"><path d="M246.4341,796.7476a11.7515,11.7515,0,1,1-16.6181,0A11.7537,11.7537,0,0,1,246.4341,796.7476Z" fill="#312782"/><path d="M337.1089,887.4224a11.7506,11.7506,0,1,1-16.6176,0A11.7537,11.7537,0,0,1,337.1089,887.4224Z" fill="#312782"/><path d="M229.816,887.4224a11.7508,11.7508,0,1,1,0,16.6182A11.7509,11.7509,0,0,1,229.816,887.4224Z" fill="#312782"/><path d="M320.4913,796.7476a11.7506,11.7506,0,1,1,0,16.6182A11.7487,11.7487,0,0,1,320.4913,796.7476Z" fill="#312782"/></g></g><g id="pattern-12" data-name="pattern"><g id="flowers-5" data-name="flowers"><path d="M26.2823,634.9361,19.586,628.479V656.5l.019-.0225c7.5235,9.5312,18.6812,26.9531,18.6792,46.4609.002,19.3828-11.1689,36.8584-18.6982,46.4356V777.397l6.6963-6.46c1.2768-1.2305,31.2959-30.61,31.2959-67.9991C57.58,665.5464,27.5591,636.1685,26.2823,634.9361Z" fill="#312782"/><path d="M68.0049,593.2124l-6.4555-6.6972H89.57l-.0235.0195c9.5293,7.5254,26.9531,18.6817,46.461,18.6817,19.3837,0,36.8593-11.1719,46.4345-18.7012h28.0244l-6.4575,6.6972c-1.2344,1.2784-30.6137,31.2969-68.0014,31.2969C98.6167,624.5093,69.2393,594.4908,68.0049,593.2124Z" fill="#312782"/><path d="M540.6485,634.9361l6.6943-6.4571V656.5l-.0176-.0225c-7.5254,9.5312-18.6806,26.9531-18.6806,46.4609,0,19.3828,11.1709,36.8584,18.6982,46.4356V777.397l-6.6943-6.46c-1.2783-1.2305-31.3-30.61-31.3-67.9991C509.3506,665.5464,539.37,636.1685,540.6485,634.9361Z" fill="#312782"/><path d="M498.9239,593.2124l6.456-6.6953-28.0195-.0019.0215.0195c-9.5293,7.5254-26.9531,18.6817-46.459,18.6817-19.3838,0-36.8594-11.1719-46.4365-18.6993H356.4639l6.4575,6.6953c1.2305,1.2784,30.61,31.2969,68.0015,31.2969C468.3121,624.5093,497.6915,594.4908,498.9239,593.2124Z" fill="#312782"/><path d="M540.6485,1065.8521l6.6943,6.457v-28.02l-.0176.0225c-7.5273-9.53-18.6806-26.9531-18.6806-46.461,0-19.3828,11.1709-36.8584,18.6982-46.4336V923.3931l-6.6943,6.458c-1.2783,1.2305-31.2979,30.61-31.2979,67.999C509.3506,1035.2417,539.37,1064.62,540.6485,1065.8521Z" fill="#312782"/><path d="M498.9239,1107.5757l6.456,6.6973H477.3584a.114.114,0,0,0,.0235-.0195c-9.5293-7.5235-26.9531-18.6807-46.459-18.6787-19.3838-.002-36.8594,11.1689-46.4365,18.6982H356.4639l6.4575-6.6973c1.2305-1.2783,30.61-31.2968,68.0015-31.2968C468.3121,1076.2789,497.6915,1106.2974,498.9239,1107.5757Z" fill="#312782"/><path d="M26.2823,1065.8521l-6.6963,6.457v-28.02l.019.0225c7.5235-9.53,18.6812-26.9531,18.6812-46.461-.002-19.3828-11.1709-36.8584-18.7-46.4336V923.3931l6.6963,6.458c1.2768,1.2324,31.2959,30.61,31.2978,67.999C57.58,1035.2417,27.5591,1064.62,26.2823,1065.8521Z" fill="#312782"/><path d="M68.0049,1107.5757l-6.4555,6.6973H89.57a.2038.2038,0,0,1-.0235-.0195c9.5313-7.5235,26.9531-18.6807,46.461-18.6807,19.3837,0,36.8593,11.1709,46.4345,18.7h28.0244l-6.4575-6.6973c-1.2324-1.2783-30.6137-31.2968-68.0014-31.2968C98.6167,1076.2789,69.2393,1106.2974,68.0049,1107.5757Z" fill="#312782"/></g><g id="flowers-6" data-name="flowers"><path d="M77.8975,650.9781c7.064,0,12.7881,6.5937,12.7881,6.5937s-5.7241,6.5908-12.7881,6.5908c-7.0625,0-12.7886-6.5908-12.7886-6.5908S70.837,650.9781,77.8975,650.9781Z" fill="#b1b3db"/><path d="M103.3824,650.9781c7.062,0,12.7885,6.5937,12.7885,6.5937s-5.7265,6.5908-12.7885,6.5908-12.7886-6.5908-12.7886-6.5908S96.3223,650.9781,103.3824,650.9781Z" fill="#b1b3db"/><path d="M84.0489,670.3121c0-7.0625,6.5908-12.7881,6.5908-12.7881s6.5918,5.7256,6.5918,12.7881S90.64,683.1,90.64,683.1,84.0489,677.3765,84.0489,670.3121Z" fill="#b1b3db"/><path d="M84.0489,644.8267c0-7.0615,6.5908-12.7881,6.5908-12.7881s6.5918,5.7266,6.5918,12.7881S90.64,657.6158,90.64,657.6158,84.0489,651.8892,84.0489,644.8267Z" fill="#b1b3db"/><path d="M463.5464,1036.6255c7.064,0,12.7867,6.5928,12.7867,6.5928s-5.7227,6.5918-12.7867,6.5918c-7.062,0-12.7885-6.5918-12.7885-6.5918S456.4844,1036.6255,463.5464,1036.6255Z" fill="#b1b3db"/><path d="M489.0313,1036.6255c7.0644,0,12.7861,6.5928,12.7861,6.5928s-5.7217,6.5918-12.7861,6.5918c-7.062,0-12.7881-6.5918-12.7881-6.5918S481.9693,1036.6255,489.0313,1036.6255Z" fill="#b1b3db"/><path d="M469.6973,1055.9615c0-7.0645,6.5918-12.7891,6.5918-12.7891s6.5913,5.7246,6.5913,12.7871-6.5913,12.79-6.5913,12.79S469.6973,1063.023,469.6973,1055.9615Z" fill="#b1b3db"/><path d="M469.6973,1030.4742c0-7.0625,6.5918-12.7862,6.5918-12.7862s6.5913,5.7237,6.5913,12.7862c0,7.0644-6.5913,12.7881-6.5913,12.7881S469.6973,1037.5367,469.6973,1030.4742Z" fill="#b1b3db"/><path d="M84.0489,1055.9615c0-7.0645,6.5908-12.7891,6.5908-12.7891s6.5918,5.7246,6.5918,12.7871-6.5918,12.79-6.5918,12.79S84.0489,1063.023,84.0489,1055.9615Z" fill="#b1b3db"/><path d="M84.0489,1030.4761c0-7.0625,6.5908-12.7881,6.5908-12.7881s6.5918,5.7256,6.5918,12.7881-6.5918,12.7881-6.5918,12.7881S84.0489,1037.5386,84.0489,1030.4761Z" fill="#b1b3db"/><path d="M103.3824,1049.81c-7.062,0-12.7886-6.5918-12.7886-6.5918s5.7266-6.5928,12.7886-6.5928c7.062.002,12.7885,6.5928,12.7885,6.5928S110.4444,1049.81,103.3824,1049.81Z" fill="#b1b3db"/><path d="M77.8975,1049.81c-7.0625,0-12.7886-6.5918-12.7886-6.5918s5.7261-6.5928,12.7886-6.5908c7.064-.002,12.7881,6.5908,12.7881,6.5908S84.96,1049.81,77.8975,1049.81Z" fill="#b1b3db"/><path d="M469.6954,670.3121c0-7.0625,6.5918-12.7881,6.5918-12.7881s6.5932,5.7256,6.5932,12.7881-6.5932,12.788-6.5932,12.788S469.6954,677.3746,469.6954,670.3121Z" fill="#b1b3db"/><path d="M469.6954,644.8267c0-7.0615,6.5918-12.7881,6.5918-12.7881s6.5932,5.7266,6.5932,12.7881c0,7.0645-6.5932,12.7891-6.5932,12.7891S469.6954,651.8912,469.6954,644.8267Z" fill="#b1b3db"/><path d="M489.0313,664.1626c-7.062,0-12.7881-6.5908-12.7881-6.5908s5.7261-6.5937,12.7861-6.5937c7.0645,0,12.79,6.5937,12.79,6.5937S496.0938,664.1626,489.0313,664.1626Z" fill="#b1b3db"/><path d="M463.5445,664.1626c-7.06,0-12.7866-6.5908-12.7866-6.5908s5.7246-6.5937,12.7866-6.5937c7.0639,0,12.7886,6.5937,12.7886,6.5937S470.6084,664.1626,463.5445,664.1626Z" fill="#b1b3db"/></g></g></g></g><g id="tile-7" data-name="tile"><g id="pattern-13" data-name="pattern"><g id="pattern-14" data-name="pattern"><g id="shapes-4" data-name="shapes"><path d="M850.3765,528.8877l-7.2637-10.2c-10.4824-14.72-37.7812-50.163-64.7754-61.3437-10.6152-4.3975-24.9628-6.6279-42.6484-6.6279a290.2346,290.2346,0,0,0-46.3828,4.1748l-12.4609,2.09,2.0879-12.4648c2.98-17.792,8.7109-62.08-2.4532-89.0293-11.1621-26.9492-46.5312-54.2139-61.2168-64.6866l-10.291-7.3359,10.291-7.3359c14.6856-10.4707,50.0547-37.7354,61.2168-64.6865,11.1641-26.9493,5.4336-71.2378,2.4512-89.0289l-2.0859-12.4633,12.4609,2.0879a290.29,290.29,0,0,0,46.3848,4.1743c17.6836,0,32.0312-2.23,42.6464-6.6255,26.9942-11.1812,54.293-46.624,64.7754-61.3433l7.2637-10.2012L857.74,48.1739c10.8281,14.8994,38.8008,50.7075,64.6426,61.4121,10.1269,4.1929,24.2441,6.3213,41.9648,6.3213a313.0239,313.0239,0,0,0,47.3223-4.0611l12.2519-1.9448-1.9433,12.2544c-2.8926,18.2241-8.459,63.4028,2.26,89.2857,10.7227,25.8833,46.6075,53.8906,61.5371,64.7324l10.0391,7.29-10.0391,7.29c-14.93,10.8417-50.8164,38.85-61.5371,64.7343-10.7207,25.8828-5.1523,71.0615-2.26,89.2832l1.9433,12.2569L1011.67,455.084a312.7944,312.7944,0,0,0-47.3223-4.0615c-17.7207,0-31.8379,2.126-41.9648,6.3213-25.8379,10.7-53.8145,46.5127-64.6426,61.4141ZM735.689,432.6993c20.0625,0,36.7324,2.69,49.543,8,25.6543,10.624,49.8965,37.6318,65.2812,57.6894,15.7305-20.2295,40.27-47.46,64.9727-57.6914,12.3242-5.1064,28.7637-7.6933,48.8594-7.6933a311.8,311.8,0,0,1,38.1289,2.5732c-3.209-25.4727-5.1465-62.2061,5.1172-86.9844,10.2656-24.7812,37.6074-49.3838,57.8886-65.1289-20.2812-15.7451-47.623-40.3481-57.8906-65.1289-10.2617-24.7783-8.3242-61.5112-5.1172-86.9849a311.1,311.1,0,0,1-38.125,2.5762c-20.0976,0-36.5371-2.5874-48.8613-7.6938-24.7051-10.2334-49.2422-37.4619-64.9727-57.6914-15.3828,20.0571-39.6289,47.0654-65.2812,57.6914-12.8106,5.3071-29.4785,7.998-49.541,7.998a290.8746,290.8746,0,0,1-37.1661-2.6011c3.2813,25.0162,5.1993,61.1309-5.3964,86.7076s-37.4883,49.7587-57.4942,65.1269c20.0078,15.37,46.8985,39.5518,57.4942,65.127,10.5957,25.5771,8.6777,61.6933,5.3964,86.707A291.2824,291.2824,0,0,1,735.689,432.6993Z" fill="#312782"/></g><path d="M892.0835,172.77a27.5457,27.5457,0,0,0-16.2324,5.1386v-9.6821c0-27.751-25.4433-46.8935-25.4433-46.8935h0s-25.4434,19.1425-25.4434,46.8935v9.6821a27.5439,27.5439,0,0,0-16.2305-5.1386c-14.0527,0-25.4433,10.0034-25.4433,22.3442,59.4.0039,66.8574,49.6377,67.1172,52.7578v.0015h0c.2578-3.11,7.7109-52.7554,67.1171-52.7593C917.5249,182.7735,906.1343,172.77,892.0835,172.77Z" fill="#312782"/><path d="M808.7339,394.16a27.5467,27.5467,0,0,0,16.2305-5.1387v9.6817c0,27.7509,25.4434,46.8935,25.4434,46.8935h0s25.4433-19.1426,25.4433-46.8935v-9.6817a27.5485,27.5485,0,0,0,16.2324,5.1387c14.0508,0,25.4414-10.0059,25.4414-22.3447-59.4-.0039-66.8554-49.6377-67.1171-52.7578v-.002h0c-.2559,3.11-7.709,52.7559-67.1172,52.76C783.2906,384.1543,794.6812,394.16,808.7339,394.16Z" fill="#312782"/><path d="M739.7144,241.79a27.5336,27.5336,0,0,0,5.1387,16.2314h-9.6856c-27.748,0-46.8906,25.4429-46.8906,25.4429h0v.002s19.1426,25.4414,46.8906,25.4414h9.6856a27.5413,27.5413,0,0,0-5.1387,16.2324c0,14.0518,10.002,25.4434,22.3438,25.4434.0019-59.4024,49.6367-66.8584,52.7578-67.1172h0c-3.1114-.2588-52.7559-7.711-52.7578-67.1192C749.7164,216.3467,739.7144,227.7378,739.7144,241.79Z" fill="#312782"/><path d="M961.1031,325.14a27.5815,27.5815,0,0,0-5.1367-16.2324h9.6816c27.75,0,46.8926-25.4414,46.8926-25.4414v-.002h0S993.398,258.021,965.648,258.021h-9.6816a27.5739,27.5739,0,0,0,5.1367-16.2314c0-14.0518-10.0059-25.4429-22.3438-25.4429-.0058,59.4-49.6386,66.8584-52.7578,67.1172H886c3.1074.2588,52.7539,7.7109,52.76,67.1192C951.0972,350.5831,961.1031,339.1915,961.1031,325.14Z" fill="#312782"/><path d="M755.607,162.0215c-4.4336,4.4307-7.8574,13.4414.7656,26.708a33.83,33.83,0,0,0,3.1641,3.8643,33.9536,33.9536,0,0,0-3.8653-3.1655c-13.2636-8.6221-22.2754-5.1963-26.707-.7657-1.9687,1.9693-5.1914,8.7217.6387,14.2085,10.8906,10.8916,23.4531-10.5434,44.5508,4.3389h0c-14.8829-21.0967,6.5527-33.6572-4.34-44.5488C764.3277,156.8311,757.5757,160.0523,755.607,162.0215Z" fill="#312782"/><path d="M945.2105,404.9082c4.43-4.4306,7.8555-13.4414-.7676-26.708a33.4122,33.4122,0,0,0-3.166-3.8642,34.18,34.18,0,0,0,3.8672,3.166c13.2637,8.6211,22.2773,5.1953,26.7051.7666,1.9707-1.9707,5.1933-8.7227-.6368-14.21-10.8925-10.8916-23.455,10.543-44.5507-4.3388h0c14.8828,21.0967-6.5508,33.6572,4.3379,44.5488C936.4878,410.0987,943.24,406.877,945.2105,404.9082Z" fill="#312782"/><path d="M728.9644,378.2666c4.4316,4.4307,13.4414,7.8565,26.707-.7646a33.3271,33.3271,0,0,0,3.8633-3.168,33.92,33.92,0,0,0-3.1621,3.8682c-8.623,13.2627-5.1992,22.2754-.7656,26.706,1.9687,1.9688,8.7207,5.19,14.207-.64,10.8926-10.89-10.543-23.4541,4.34-44.5488h0c-21.1,14.8818-33.66-6.5528-44.5508,4.3388C723.773,369.5459,726.9957,376.2979,728.9644,378.2666Z" fill="#312782"/><path d="M971.8511,188.6607c-4.43-4.4307-13.4433-7.8545-26.707.7676a33.9431,33.9431,0,0,0-3.8672,3.1655,33.8241,33.8241,0,0,0,3.166-3.8643c8.6231-13.2646,5.1973-22.2773.7676-26.708-1.9688-1.9692-8.7227-5.19-14.2109.64-10.8887,10.8916,10.5468,23.4541-4.3379,44.5488h0c21.0957-14.8823,33.6582,6.5527,44.5507-4.3389C977.0425,197.3843,973.8238,190.6319,971.8511,188.6607Z" fill="#312782"/><g id="flower-7" data-name="flower"><path d="M845.25,267.2994c5.9043,5.9043,5.18,16.2026,5.18,16.2026s-10.2988.7256-16.205-5.1807c-5.9043-5.9062-5.1817-16.2046-5.1817-16.2046S839.3433,261.3931,845.25,267.2994Z" fill="#312782"/><path d="M866.5562,288.6065c5.9062,5.9062,5.1816,16.2051,5.1816,16.2051s-10.2988.7246-16.205-5.1817c-5.9043-5.9062-5.1817-16.2041-5.1817-16.2041S860.6519,282.7022,866.5562,288.6065Z" fill="#312782"/><path d="M834.2242,288.6065c5.9062-5.9043,16.205-5.1807,16.205-5.1807s.7247,10.2979-5.18,16.2041c-5.9082,5.9063-16.2071,5.1817-16.2071,5.1817S828.32,294.5127,834.2242,288.6065Z" fill="#312782"/><path d="M855.5328,267.2974c5.9062-5.9043,16.205-5.1807,16.205-5.1807s.7246,10.2984-5.1816,16.2046-16.2051,5.1807-16.2051,5.1807S849.6285,273.2037,855.5328,267.2974Z" fill="#312782"/></g><g id="dots-7" data-name="dots"><path d="M813.3628,229.8184a11.7512,11.7512,0,1,1-16.6171,0A11.7528,11.7528,0,0,1,813.3628,229.8184Z" fill="#312782"/><path d="M904.0386,320.4932a11.7512,11.7512,0,1,1-16.6191,0A11.7563,11.7563,0,0,1,904.0386,320.4932Z" fill="#312782"/><path d="M796.7457,320.4932a11.75,11.75,0,1,1,0,16.6182A11.75,11.75,0,0,1,796.7457,320.4932Z" fill="#312782"/><path d="M887.42,229.8184a11.7512,11.7512,0,1,1,0,16.6182A11.7512,11.7512,0,0,1,887.42,229.8184Z" fill="#312782"/></g></g><g id="pattern-15" data-name="pattern"><g id="flowers-7" data-name="flowers"><path d="M593.2105,68.0069,586.5152,61.55V89.57l.0195-.023c7.5235,9.5313,18.68,26.9531,18.6777,46.4609.002,19.3838-11.1679,36.8594-18.6972,46.4361v28.0229l6.6953-6.4594c1.2773-1.2305,31.2969-30.61,31.2969-68C624.5093,98.6172,594.4878,69.24,593.2105,68.0069Z" fill="#312782"/><path d="M634.9332,26.2828l-6.4551-6.6963H656.5l-.0235.019c9.5293,7.5254,26.9531,18.6812,46.461,18.6812,19.3828,0,36.8593-11.1714,46.4336-18.7H777.396l-6.457,6.6963C769.7046,27.5616,740.3238,57.58,702.9371,57.58,665.5464,57.58,636.1675,27.5616,634.9332,26.2828Z" fill="#312782"/><path d="M1107.5777,68.0069l6.6933-6.4571V89.57a.1436.1436,0,0,1-.0156-.023c-7.5254,9.5313-18.6816,26.9531-18.6816,46.4609,0,19.3838,11.17,36.8594,18.6972,46.4361v28.0229l-6.6933-6.4594c-1.2793-1.2305-31.3008-30.61-31.3008-68C1076.2789,98.6172,1106.2984,69.24,1107.5777,68.0069Z" fill="#312782"/><path d="M1065.8531,26.2828l6.4551-6.6944-28.02-.0019.0215.019c-9.5293,7.5254-26.9531,18.6812-46.459,18.6812-19.3828,0-36.8594-11.1714-46.4355-18.6983H923.3921l6.4571,6.6944c1.2324,1.2788,30.6113,31.2973,68.0019,31.2973C1035.24,57.58,1064.6207,27.5616,1065.8531,26.2828Z" fill="#312782"/><path d="M1107.5777,498.9229l6.6933,6.457V477.3594a.16.16,0,0,0-.0156.0225c-7.5273-9.53-18.6816-26.9522-18.6816-46.461,0-19.3828,11.17-36.8584,18.6972-46.4336V356.4639l-6.6933,6.458c-1.2793,1.2305-31.2988,30.61-31.2988,67.999C1076.2789,468.3125,1106.2984,497.6905,1107.5777,498.9229Z" fill="#312782"/><path d="M1065.8531,540.6465l6.4551,6.6973h-28.0215a.1161.1161,0,0,0,.0234-.0195c-9.5293-7.5235-26.9531-18.6807-46.459-18.68-19.3828-.001-36.8594,11.17-46.4355,18.6992H923.3921l6.4571-6.6973c1.2324-1.2783,30.6113-31.2968,68.0019-31.2968C1035.24,509.35,1064.6207,539.3682,1065.8531,540.6465Z" fill="#312782"/><path d="M593.2105,498.9229l-6.6953,6.457V477.3594c.0058.0078.0137.0147.0195.0225,7.5235-9.53,18.68-26.9522,18.68-46.461-.002-19.3828-11.17-36.8584-18.6992-46.4336V356.4639l6.6953,6.458c1.2773,1.2324,31.2969,30.61,31.2988,67.999C624.5093,468.3125,594.4878,497.6905,593.2105,498.9229Z" fill="#312782"/><path d="M634.9332,540.6465l-6.4551,6.6973H656.5a.2038.2038,0,0,1-.0235-.0195c9.5313-7.5235,26.9531-18.6807,46.461-18.6807,19.3828,0,36.8593,11.1709,46.4336,18.7H777.396l-6.457-6.6973c-1.2324-1.2783-30.6152-31.2968-68.0019-31.2968C665.5464,509.35,636.1675,539.3682,634.9332,540.6465Z" fill="#312782"/></g><g id="flowers-8" data-name="flowers"><path d="M644.8257,84.0489c7.0645,0,12.7891,6.5932,12.7891,6.5932s-5.7246,6.5913-12.7891,6.5913c-7.0625,0-12.7871-6.5913-12.7871-6.5913S637.7652,84.0489,644.8257,84.0489Z" fill="#b1b3db"/><path d="M670.3121,84.0489c7.0605,0,12.7871,6.5932,12.7871,6.5932s-5.7266,6.5913-12.7871,6.5913c-7.0625,0-12.7891-6.5913-12.7891-6.5913S663.2515,84.0489,670.3121,84.0489Z" fill="#b1b3db"/><path d="M650.9781,103.3829c0-7.0621,6.59-12.7886,6.59-12.7886s6.5918,5.7265,6.5918,12.7886-6.5918,12.7885-6.5918,12.7885S650.9781,110.4468,650.9781,103.3829Z" fill="#b1b3db"/><path d="M650.9781,77.898c0-7.062,6.59-12.7886,6.59-12.7886S664.16,70.836,664.16,77.898s-6.5918,12.7886-6.5918,12.7886S650.9781,84.96,650.9781,77.898Z" fill="#b1b3db"/><path d="M1030.4761,469.6963c7.0625,0,12.7852,6.5928,12.7852,6.5928s-5.7227,6.5918-12.7852,6.5918-12.789-6.5918-12.789-6.5918S1023.4136,469.6963,1030.4761,469.6963Z" fill="#b1b3db"/><path d="M1055.9605,469.6963c7.0644,0,12.7871,6.5928,12.7871,6.5928s-5.7227,6.5918-12.7871,6.5918c-7.0625,0-12.7891-6.5918-12.7891-6.5918S1048.898,469.6963,1055.9605,469.6963Z" fill="#b1b3db"/><path d="M1036.6265,489.0323c0-7.0645,6.5918-12.7891,6.5918-12.7891s6.59,5.7246,6.59,12.7871-6.59,12.79-6.59,12.79S1036.6265,496.0938,1036.6265,489.0323Z" fill="#b1b3db"/><path d="M1036.6265,463.545c0-7.0625,6.5918-12.7862,6.5918-12.7862s6.59,5.7237,6.59,12.7862c0,7.0644-6.59,12.7881-6.59,12.7881S1036.6265,470.6075,1036.6265,463.545Z" fill="#b1b3db"/><path d="M650.9781,489.0323c0-7.0645,6.59-12.7891,6.59-12.7891s6.5918,5.7246,6.5918,12.7871-6.5918,12.79-6.5918,12.79S650.9781,496.0938,650.9781,489.0323Z" fill="#b1b3db"/><path d="M650.9781,463.5469c0-7.0625,6.59-12.7881,6.59-12.7881s6.5918,5.7256,6.5918,12.7881-6.5918,12.7881-6.5918,12.7881S650.9781,470.6094,650.9781,463.5469Z" fill="#b1b3db"/><path d="M670.3121,482.8809c-7.0625,0-12.7891-6.5918-12.7891-6.5918s5.7266-6.5928,12.7891-6.5928c7.0605.002,12.7871,6.5928,12.7871,6.5928S677.3726,482.8809,670.3121,482.8809Z" fill="#b1b3db"/><path d="M644.8257,482.8809c-7.0625,0-12.7871-6.5918-12.7871-6.5918s5.7246-6.5928,12.7871-6.5908c7.0645-.002,12.7891,6.5908,12.7891,6.5908S651.8882,482.8809,644.8257,482.8809Z" fill="#b1b3db"/><path d="M1036.6246,103.3829c0-7.0621,6.5918-12.7886,6.5918-12.7886s6.5918,5.7265,6.5918,12.7886-6.5918,12.7885-6.5918,12.7885S1036.6246,110.4449,1036.6246,103.3829Z" fill="#b1b3db"/><path d="M1036.6246,77.898c0-7.062,6.5918-12.7886,6.5918-12.7886s6.5918,5.7266,6.5918,12.7886c0,7.064-6.5918,12.7886-6.5918,12.7886S1036.6246,84.962,1036.6246,77.898Z" fill="#b1b3db"/><path d="M1055.9605,97.2334c-7.0625,0-12.7891-6.5913-12.7891-6.5913s5.7266-6.5932,12.7871-6.5932c7.0645,0,12.7911,6.5932,12.7911,6.5932S1063.023,97.2334,1055.9605,97.2334Z" fill="#b1b3db"/><path d="M1030.4742,97.2334c-7.0606,0-12.7871-6.5913-12.7871-6.5913s5.7246-6.5932,12.7871-6.5932,12.7871,6.5932,12.7871,6.5932S1037.5367,97.2334,1030.4742,97.2334Z" fill="#b1b3db"/></g></g></g></g><g id="tile-8" data-name="tile"><g id="pattern-16" data-name="pattern"><path d="M350.1314,106.3819a44.0868,44.0868,0,0,0-25.9688,8.2221V99.1133c0-44.394-40.7-75.0141-40.7-75.0141h0s-40.7041,30.62-40.7041,75.0141V114.604a44.0568,44.0568,0,0,0-25.9614-8.2221c-22.4819,0-40.7041,16.0078-40.7041,35.749,95.0293.0039,106.9527,79.4063,107.37,84.3936v.0039h0c.4156-4.9742,12.335-84.3936,107.37-84.3975C390.8326,122.39,372.606,106.3819,350.1314,106.3819Z" fill="#312782"/><path d="M216.7969,460.5479a44.0725,44.0725,0,0,0,25.9614-8.22v15.4883c0,44.3945,40.7041,75.0175,40.7041,75.0175V542.83h0s40.7-30.6191,40.7-75.0136V452.3282a44.0755,44.0755,0,0,0,25.9688,8.22c22.4805,0,40.7012-16.0078,40.7012-35.7451-95.024-.0078-106.9507-79.41-107.37-84.3994v-.002h0c-.4135,4.9736-12.331,84.3936-107.37,84.4014C176.0928,444.54,194.315,460.5479,216.7969,460.5479Z" fill="#312782"/><path d="M106.3824,216.7964a44.0632,44.0632,0,0,0,8.22,25.9654H99.1133c-44.3935,0-75.0136,40.7-75.0136,40.7v.0039h0S54.72,324.168,99.1133,324.168h15.4893a44.059,44.059,0,0,0-8.22,25.9658c0,22.4776,16.0019,40.7032,35.7451,40.7032.0039-95.0284,79.4043-106.958,84.3979-107.3711h0c-4.9746-.4112-84.394-12.335-84.3979-107.3716C122.3843,176.0943,106.3824,194.3184,106.3824,216.7964Z" fill="#312782"/><path d="M460.5464,350.1338a44.0982,44.0982,0,0,0-8.2177-25.9658h15.4882c44.3926,0,75.0118-40.7021,75.0118-40.7021h0v-.0039s-30.6192-40.7-75.0118-40.7H452.3287a44.0936,44.0936,0,0,0,8.2177-25.9654c0-22.478-16.0068-40.7021-35.749-40.7021-.0059,95.0273-79.4043,106.9565-84.3935,107.3716v-.0039l-.004.0039c4.9737.4131,84.3916,12.331,84.3975,107.3711C444.54,390.837,460.5464,372.6153,460.5464,350.1338Z" fill="#312782"/><path d="M131.8082,89.1915c-7.0889,7.0888-12.5684,21.5024,1.2211,42.7231a54.8615,54.8615,0,0,0,5.0694,6.1841,54.8024,54.8024,0,0,0-6.1875-5.0664c-21.2129-13.791-35.6338-8.3116-42.7227-1.2266-3.1484,3.1538-8.3066,13.9541,1.02,22.7329,17.4253,17.4258,37.523-16.8667,71.272,6.94h0c-23.8086-33.7491,10.4824-53.8428-6.9453-71.2661C145.7618,80.8853,134.9561,86.0415,131.8082,89.1915Z" fill="#312782"/><path d="M435.1226,477.7422c7.0889-7.0849,12.5664-21.5029-1.2236-42.7256a54.0554,54.0554,0,0,0-5.0645-6.18,53.4343,53.4343,0,0,0,6.1836,5.06c21.2207,13.7949,35.6367,8.3174,42.7188,1.2285,3.1543-3.15,8.3066-13.9521-1.0157-22.7324-17.4238-17.4219-37.5214,16.87-71.2714-6.9424h0c23.8085,33.751-10.4825,53.8467,6.9433,71.2686C421.1685,486.0459,431.9693,480.8946,435.1226,477.7422Z" fill="#312782"/><path d="M89.1885,435.126c7.0889,7.0889,21.5039,12.5664,42.7227-1.2226a54.0445,54.0445,0,0,0,6.186-5.07,54.9964,54.9964,0,0,0-5.0679,6.1875c-13.79,21.2158-8.31,35.6367-1.2211,42.7216,3.1479,3.1524,13.9536,8.3037,22.7309-1.0224,17.4238-17.4219-16.8672-37.5176,6.9414-71.2686h0c-33.749,23.8086-53.8467-10.4795-71.272,6.9424C80.8819,421.1739,86.04,431.9756,89.1885,435.126Z" fill="#312782"/><path d="M477.7408,131.8057c-7.086-7.0869-21.502-12.5644-42.7227,1.2266a53.4366,53.4366,0,0,0-6.1836,5.0664,54.0669,54.0669,0,0,0,5.06-6.1841c13.7949-21.2188,8.3174-35.6343,1.2285-42.7231-3.1494-3.15-13.9541-8.3062-22.7295,1.02-17.4258,17.4233,16.8672,37.521-6.9433,71.2661h0c33.75-23.8028,53.8476,10.4863,71.2714-6.94C486.0435,145.76,480.8951,134.96,477.7408,131.8057Z" fill="#312782"/><g id="flower-8" data-name="flower"><path d="M275.2408,257.604c9.4467,9.4507,8.2866,25.9273,8.2866,25.9273s-16.4761,1.1572-25.9268-8.291c-9.4453-9.4473-8.2851-25.9234-8.2851-25.9234S265.792,248.1607,275.2408,257.604Z" fill="#312782"/><path d="M309.3262,291.6954c9.45,9.4472,8.2876,25.92,8.2876,25.92s-16.4731,1.1592-25.9233-8.2852c-9.4453-9.4492-8.2871-25.9238-8.2871-25.9238S299.88,282.2491,309.3262,291.6954Z" fill="#312782"/><path d="M257.6006,291.6954c9.4507-9.45,25.9268-8.2891,25.9268-8.2891s1.16,16.4746-8.2866,25.9238c-9.4527,9.4444-25.9253,8.2852-25.9253,8.2852S248.1553,301.1426,257.6006,291.6954Z" fill="#312782"/><path d="M291.6905,257.604c9.45-9.4433,25.9233-8.2871,25.9233-8.2871s1.1621,16.4727-8.2876,25.9234c-9.4482,9.4443-25.9228,8.291-25.9228,8.291S282.2452,267.0489,291.6905,257.604Z" fill="#312782"/></g><g id="dots-8" data-name="dots"><path d="M224.2305,197.6485a18.798,18.798,0,1,1-26.5854,0A18.7965,18.7965,0,0,1,224.2305,197.6485Z" fill="#b1b3db"/><path d="M369.2837,342.7022a18.798,18.798,0,1,1-26.5859,0A18.795,18.795,0,0,1,369.2837,342.7022Z" fill="#b1b3db"/><path d="M197.6451,342.7022a18.7979,18.7979,0,1,1,0,26.583A18.7979,18.7979,0,0,1,197.6451,342.7022Z" fill="#b1b3db"/><path d="M342.6978,197.6485a18.7982,18.7982,0,1,1,0,26.5835A18.7949,18.7949,0,0,1,342.6978,197.6485Z" fill="#b1b3db"/></g></g></g></g></svg>