<svg id="Ebene_1" data-name="Ebene 1" xmlns="http://www.w3.org/2000/svg" viewBox="0 0 50.0175 50.0175"><title>title-divider-mob</title><path d="M25.046,20.3979a.6959.6959,0,0,0,1.0194,0,17.0811,17.0811,0,0,0,2.046-2.8792,14.4317,14.4317,0,0,0,2.0451-6.991,14.43,14.43,0,0,0-2.0451-6.9906A17.0657,17.0657,0,0,0,26.0654.6579a.6957.6957,0,0,0-1.0194,0A17.0723,17.0723,0,0,0,23,3.5371a14.4336,14.4336,0,0,0-2.0452,6.9906A14.4349,14.4349,0,0,0,23,17.5187,17.0878,17.0878,0,0,0,25.046,20.3979Z" transform="translate(-0.5468 -0.4357)" fill="#fff"/><path d="M26.0655,30.4908a.6956.6956,0,0,0-1.02,0A17.0981,17.0981,0,0,0,23,33.37a14.4359,14.4359,0,0,0-2.0452,6.991A14.434,14.434,0,0,0,23,47.3517a17.0687,17.0687,0,0,0,2.046,2.8791.6954.6954,0,0,0,1.02,0,17.0769,17.0769,0,0,0,2.0459-2.8791,14.4321,14.4321,0,0,0,2.0451-6.9907,14.4327,14.4327,0,0,0-2.0451-6.991A17.1012,17.1012,0,0,0,26.0655,30.4908Z" transform="translate(-0.5468 -0.4357)" fill="#fff"/><path d="M3.6483,28a14.4312,14.4312,0,0,0,6.9909,2.0451A14.4316,14.4316,0,0,0,17.63,28a17.0643,17.0643,0,0,0,2.8791-2.046.6955.6955,0,0,0,0-1.0192A17.0648,17.0648,0,0,0,17.63,22.8885a14.4337,14.4337,0,0,0-6.9909-2.045,14.4334,14.4334,0,0,0-6.9909,2.045A17.0853,17.0853,0,0,0,.7692,24.9347a.695.695,0,0,0,0,1.0192A17.0849,17.0849,0,0,0,3.6483,28Z" transform="translate(-0.5468 -0.4357)" fill="#fff"/><path d="M47.463,22.8887a14.4309,14.4309,0,0,0-6.9909-2.0452,14.4321,14.4321,0,0,0-6.9906,2.0452,17.0642,17.0642,0,0,0-2.8792,2.046.6955.6955,0,0,0,0,1.0194A17.0841,17.0841,0,0,0,33.4815,28a14.432,14.432,0,0,0,6.99,2.0449A14.431,14.431,0,0,0,47.463,28a17.0489,17.0489,0,0,0,2.8791-2.046.6955.6955,0,0,0,0-1.0192A17.0577,17.0577,0,0,0,47.463,22.8887Z" transform="translate(-0.5468 -0.4357)" fill="#fff"/><path d="M24.0894,25.4444a1.4663,1.4663,0,1,0,1.4664-1.4663A1.4666,1.4666,0,0,0,24.0894,25.4444Z" transform="translate(-0.5468 -0.4357)" fill="#fff"/><path d="M29.3461,29.2345a.3472.3472,0,0,0-.0368.4486c.5508.7672,5.3977,7.5126,5.9831,8.0979a1.8385,1.8385,0,0,0,2.6-2.6c-.5852-.5852-7.3308-5.4323-8.0978-5.983A.3472.3472,0,0,0,29.3461,29.2345Z" transform="translate(-0.5468 -0.4357)" fill="#fff"/><path d="M21.3169,29.1979c-.7674.5507-7.5123,5.3978-8.0976,5.983a1.8384,1.8384,0,0,0,2.6,2.6c.5853-.5853,5.4322-7.3307,5.9829-8.0979a.3477.3477,0,0,0-.4851-.4852Z" transform="translate(-0.5468 -0.4357)" fill="#fff"/><path d="M37.8923,13.1078a1.8383,1.8383,0,0,0-2.6,0c-.5856.5853-5.4325,7.3309-5.9833,8.0981a.3477.3477,0,0,0,.4852.4852c.767-.5508,7.5126-5.3981,8.0978-5.9833A1.8405,1.8405,0,0,0,37.8923,13.1078Z" transform="translate(-0.5468 -0.4357)" fill="#fff"/><path d="M21.7833,21.1793c-.6339-.8827-5.3852-7.4924-5.9642-8.0717a1.8384,1.8384,0,1,0-2.6,2.6c.5853.5852,7.3306,5.4323,8.0977,5.983a.3462.3462,0,0,0,.2026.0653h.0021a.3476.3476,0,0,0,.2616-.5766Z" transform="translate(-0.5468 -0.4357)" fill="#fff"/></svg>